# Calibrated from existing Blender library, millimetres
mtllib calibrated_button_insert.mtl
o round_button_insert_button
v 0.000000000 0.935197034 3.799999952
v 0.022947524 0.934915435 3.799999952
v 0.045886571 0.934070638 3.799999952
v 0.068800186 0.932663174 3.799999952
v 0.091662939 0.930693836 3.799999952
v 0.114474829 0.928163950 3.799999952
v 0.137218903 0.925074973 3.799999952
v 0.159886682 0.921428758 3.799999952
v 0.182444259 0.917227425 3.799999952
v 0.204900111 0.912473756 3.799999952
v 0.227237284 0.907170399 3.799999952
v 0.249430345 0.901320534 3.799999952
v 0.271470819 0.894927737 3.799999952
v 0.293350227 0.887995982 3.799999952
v 0.315060094 0.880529242 3.799999952
v 0.336574987 0.872532152 3.799999952
v 0.357886430 0.864009483 3.799999952
v 0.378977468 0.854966266 3.799999952
v 0.399848101 0.845408065 3.799999952
v 0.420472898 0.835340707 3.799999952
v 0.440851859 0.824770155 3.799999952
v 0.460959553 0.813702764 3.799999952
v 0.480787502 0.802145158 3.799999952
v 0.500327230 0.790104490 3.799999952
v 0.519570258 0.777587911 3.799999952
v 0.538491157 0.764602973 3.799999952
v 0.557098403 0.751157224 3.799999952
v 0.575366565 0.737259275 3.799999952
v 0.593278689 0.722917073 3.799999952
v 0.610843251 0.708139491 3.799999952
v 0.628043297 0.692935273 3.799999952
v 0.644853397 0.677313690 3.799999952
v 0.661282027 0.661284146 3.799999952
v 0.677312233 0.644856179 3.799999952
v 0.692935538 0.628039986 3.799999952
v 0.708143465 0.610845238 3.799999952
v 0.722919059 0.593282795 3.799999952
v 0.737262322 0.575362724 3.799999952
v 0.751156297 0.557096152 3.799999952
v 0.764600986 0.538494071 3.799999952
v 0.777587911 0.519567609 3.799999952
v 0.790108596 0.500328157 3.799999952
v 0.802146085 0.480787369 3.799999952
v 0.813700380 0.460956904 3.799999952
v 0.824771479 0.440848813 3.799999952
v 0.835342429 0.420475150 3.799999952
v 0.845404753 0.399848233 3.799999952
v 0.854966928 0.378980514 3.799999952
v 0.864011999 0.357884443 3.799999952
v 0.872531490 0.336572735 3.799999952
v 0.880525400 0.315058372 3.799999952
v 0.887993730 0.293354201 3.799999952
v 0.894928002 0.271473335 3.799999952
v 0.901319740 0.249429021 3.799999952
v 0.907168942 0.227234370 3.799999952
v 0.912475610 0.204902893 3.799999952
v 0.917231266 0.182447836 3.799999952
v 0.921427433 0.159883106 3.799999952
v 0.925072589 0.137221949 3.799999952
v 0.928166732 0.114478141 3.799999952
v 0.930692909 0.091665323 3.799999952
v 0.932659598 0.068797339 3.799999952
v 0.934066797 0.045887962 3.799999952
v 0.934914508 0.022950902 3.799999952
v 0.935194252 0.000000000 3.799999952
v 0.934914508 -0.022950902 3.799999952
v 0.934066797 -0.045887962 3.799999952
v 0.932659598 -0.068797339 3.799999952
v 0.930692909 -0.091665323 3.799999952
v 0.928166732 -0.114478075 3.799999952
v 0.925072589 -0.137221883 3.799999952
v 0.921427433 -0.159883040 3.799999952
v 0.917231266 -0.182447902 3.799999952
v 0.912475610 -0.204902827 3.799999952
v 0.907168942 -0.227234370 3.799999952
v 0.901319740 -0.249429021 3.799999952
v 0.894928002 -0.271473335 3.799999952
v 0.887993730 -0.293354201 3.799999952
v 0.880525400 -0.315058372 3.799999952
v 0.872531490 -0.336572735 3.799999952
v 0.864011999 -0.357884443 3.799999952
v 0.854966928 -0.378980514 3.799999952
v 0.845404753 -0.399848233 3.799999952
v 0.835342429 -0.420475150 3.799999952
v 0.824771479 -0.440848813 3.799999952
v 0.813700380 -0.460956937 3.799999952
v 0.802146085 -0.480787369 3.799999952
v 0.790108596 -0.500328190 3.799999952
v 0.777587911 -0.519567642 3.799999952
v 0.764600986 -0.538494105 3.799999952
v 0.751156297 -0.557096218 3.799999952
v 0.737262322 -0.575362790 3.799999952
v 0.722919059 -0.593282729 3.799999952
v 0.708143465 -0.610845304 3.799999952
v 0.692935538 -0.628039920 3.799999952
v 0.677312233 -0.644856245 3.799999952
v 0.661282027 -0.661284146 3.799999952
v 0.644853397 -0.677313756 3.799999952
v 0.628043297 -0.692935273 3.799999952
v 0.610843251 -0.708139491 3.799999952
v 0.593278689 -0.722917073 3.799999952
v 0.575366565 -0.737259275 3.799999952
v 0.557098403 -0.751157290 3.799999952
v 0.538491157 -0.764602907 3.799999952
v 0.519570258 -0.777587911 3.799999952
v 0.500327230 -0.790104556 3.799999952
v 0.480787502 -0.802145224 3.799999952
v 0.460959553 -0.813702764 3.799999952
v 0.440851859 -0.824770155 3.799999952
v 0.420472898 -0.835340707 3.799999952
v 0.399848101 -0.845408131 3.799999952
v 0.378977468 -0.854966266 3.799999952
v 0.357886430 -0.864009416 3.799999952
v 0.336574987 -0.872532086 3.799999952
v 0.315060094 -0.880529242 3.799999952
v 0.293350227 -0.887995916 3.799999952
v 0.271470819 -0.894927737 3.799999952
v 0.249430345 -0.901320534 3.799999952
v 0.227237284 -0.907170333 3.799999952
v 0.204900111 -0.912473756 3.799999952
v 0.182444259 -0.917227491 3.799999952
v 0.159886682 -0.921428758 3.799999952
v 0.137218903 -0.925074973 3.799999952
v 0.114474829 -0.928163950 3.799999952
v 0.091662939 -0.930693836 3.799999952
v 0.068800186 -0.932663108 3.799999952
v 0.045886571 -0.934070572 3.799999952
v 0.022947524 -0.934915369 3.799999952
v 0.000000000 -0.935197034 3.799999952
v -0.022947524 -0.934915369 3.799999952
v -0.045886571 -0.934070572 3.799999952
v -0.068800186 -0.932663108 3.799999952
v -0.091662939 -0.930693836 3.799999952
v -0.114474829 -0.928163950 3.799999952
v -0.137218903 -0.925074973 3.799999952
v -0.159886682 -0.921428758 3.799999952
v -0.182444259 -0.917227491 3.799999952
v -0.204900111 -0.912473756 3.799999952
v -0.227237284 -0.907170333 3.799999952
v -0.249430345 -0.901320534 3.799999952
v -0.271470819 -0.894927737 3.799999952
v -0.293350227 -0.887995916 3.799999952
v -0.315060094 -0.880529242 3.799999952
v -0.336574987 -0.872532086 3.799999952
v -0.357886430 -0.864009416 3.799999952
v -0.378977468 -0.854966266 3.799999952
v -0.399848101 -0.845408131 3.799999952
v -0.420472898 -0.835340707 3.799999952
v -0.440851859 -0.824770155 3.799999952
v -0.460959553 -0.813702764 3.799999952
v -0.480787502 -0.802145224 3.799999952
v -0.500327230 -0.790104556 3.799999952
v -0.519570258 -0.777587911 3.799999952
v -0.538491157 -0.764602907 3.799999952
v -0.557098403 -0.751157290 3.799999952
v -0.575366565 -0.737259275 3.799999952
v -0.593278689 -0.722917073 3.799999952
v -0.610843251 -0.708139491 3.799999952
v -0.628043297 -0.692935273 3.799999952
v -0.644853397 -0.677313756 3.799999952
v -0.661282027 -0.661284146 3.799999952
v -0.677312233 -0.644856245 3.799999952
v -0.692935538 -0.628039920 3.799999952
v -0.708143465 -0.610845304 3.799999952
v -0.722919059 -0.593282729 3.799999952
v -0.737262322 -0.575362790 3.799999952
v -0.751156297 -0.557096218 3.799999952
v -0.764600986 -0.538494105 3.799999952
v -0.777587911 -0.519567642 3.799999952
v -0.790108596 -0.500328190 3.799999952
v -0.802146085 -0.480787369 3.799999952
v -0.813700380 -0.460956937 3.799999952
v -0.824771479 -0.440848813 3.799999952
v -0.835342429 -0.420475150 3.799999952
v -0.845404753 -0.399848233 3.799999952
v -0.854966928 -0.378980514 3.799999952
v -0.864011999 -0.357884443 3.799999952
v -0.872531490 -0.336572735 3.799999952
v -0.880525400 -0.315058372 3.799999952
v -0.887993730 -0.293354201 3.799999952
v -0.894928002 -0.271473335 3.799999952
v -0.901319740 -0.249429021 3.799999952
v -0.907168942 -0.227234370 3.799999952
v -0.912475610 -0.204902827 3.799999952
v -0.917231266 -0.182447902 3.799999952
v -0.921427433 -0.159883040 3.799999952
v -0.925072589 -0.137221883 3.799999952
v -0.928166732 -0.114478075 3.799999952
v -0.930692909 -0.091665323 3.799999952
v -0.932659598 -0.068797339 3.799999952
v -0.934066797 -0.045887962 3.799999952
v -0.934914508 -0.022950902 3.799999952
v -0.935194252 0.000000000 3.799999952
v -0.934914508 0.022950902 3.799999952
v -0.934066797 0.045887962 3.799999952
v -0.932659598 0.068797339 3.799999952
v -0.930692909 0.091665323 3.799999952
v -0.928166732 0.114478141 3.799999952
v -0.925072589 0.137221949 3.799999952
v -0.921427433 0.159883106 3.799999952
v -0.917231266 0.182447836 3.799999952
v -0.912475610 0.204902893 3.799999952
v -0.907168942 0.227234370 3.799999952
v -0.901319740 0.249429021 3.799999952
v -0.894928002 0.271473335 3.799999952
v -0.887993730 0.293354201 3.799999952
v -0.880525400 0.315058372 3.799999952
v -0.872531490 0.336572735 3.799999952
v -0.864011999 0.357884443 3.799999952
v -0.854966928 0.378980514 3.799999952
v -0.845404753 0.399848233 3.799999952
v -0.835342429 0.420475150 3.799999952
v -0.824771479 0.440848813 3.799999952
v -0.813700380 0.460956904 3.799999952
v -0.802146085 0.480787369 3.799999952
v -0.790108596 0.500328157 3.799999952
v -0.777587911 0.519567609 3.799999952
v -0.764600986 0.538494071 3.799999952
v -0.751156297 0.557096152 3.799999952
v -0.737262322 0.575362724 3.799999952
v -0.722919059 0.593282795 3.799999952
v -0.708143465 0.610845238 3.799999952
v -0.692935538 0.628039986 3.799999952
v -0.677312233 0.644856179 3.799999952
v -0.661282027 0.661284146 3.799999952
v -0.644853397 0.677313690 3.799999952
v -0.628043297 0.692935273 3.799999952
v -0.610843251 0.708139491 3.799999952
v -0.593278689 0.722917073 3.799999952
v -0.575366565 0.737259275 3.799999952
v -0.557098403 0.751157224 3.799999952
v -0.538491157 0.764602973 3.799999952
v -0.519570258 0.777587911 3.799999952
v -0.500327230 0.790104490 3.799999952
v -0.480787502 0.802145158 3.799999952
v -0.460959553 0.813702764 3.799999952
v -0.440851859 0.824770155 3.799999952
v -0.420472898 0.835340707 3.799999952
v -0.399848101 0.845408065 3.799999952
v -0.378977468 0.854966266 3.799999952
v -0.357886430 0.864009483 3.799999952
v -0.336574987 0.872532152 3.799999952
v -0.315060094 0.880529242 3.799999952
v -0.293350227 0.887995982 3.799999952
v -0.271470819 0.894927737 3.799999952
v -0.249430345 0.901320534 3.799999952
v -0.227237284 0.907170399 3.799999952
v -0.204900111 0.912473756 3.799999952
v -0.182444259 0.917227425 3.799999952
v -0.159886682 0.921428758 3.799999952
v -0.137218903 0.925074973 3.799999952
v -0.114474829 0.928163950 3.799999952
v -0.091662939 0.930693836 3.799999952
v -0.068800186 0.932663174 3.799999952
v -0.045886571 0.934070638 3.799999952
v -0.022947524 0.934915435 3.799999952
v 0.000000000 1.000000000 0.000000000
v 0.024541220 0.999698798 0.000000000
v 0.049065485 0.998795456 0.000000000
v 0.073564319 0.997290505 0.000000000
v 0.098020768 0.995184739 0.000000000
v 0.122409400 0.992479483 0.000000000
v 0.146730215 0.989176591 0.000000000
v 0.170957782 0.985277652 0.000000000
v 0.195092100 0.980785316 0.000000000
v 0.219099263 0.975702100 0.000000000
v 0.242979268 0.970031314 0.000000000
v 0.266715163 0.963776005 0.000000000
v 0.290281515 0.956940279 0.000000000
v 0.313678326 0.949528110 0.000000000
v 0.336888640 0.941544001 0.000000000
v 0.359895504 0.932992721 0.000000000
v 0.382681963 0.923879568 0.000000000
v 0.405239540 0.914209840 0.000000000
v 0.427551281 0.903989365 0.000000000
v 0.449608709 0.893224237 0.000000000
v 0.471394869 0.881921341 0.000000000
v 0.492901285 0.870087037 0.000000000
v 0.514102526 0.857728610 0.000000000
v 0.534998590 0.844853609 0.000000000
v 0.555572524 0.831469584 0.000000000
v 0.575807375 0.817584881 0.000000000
v 0.595703141 0.803207445 0.000000000
v 0.615234391 0.788346417 0.000000000
v 0.634392649 0.773010407 0.000000000
v 0.653169437 0.757208818 0.000000000
v 0.671556279 0.740951054 0.000000000
v 0.689544696 0.724247051 0.000000000
v 0.707109258 0.707106741 0.000000000
v 0.724249965 0.689540590 0.000000000
v 0.740949862 0.671558928 0.000000000
v 0.757208950 0.653172749 0.000000000
v 0.773010274 0.634393311 0.000000000
v 0.788345358 0.615231610 0.000000000
v 0.803205723 0.595699300 0.000000000
v 0.817582894 0.575808169 0.000000000
v 0.831468392 0.555570273 0.000000000
v 0.844853741 0.534997663 0.000000000
v 0.857730464 0.514102790 0.000000000
v 0.870090084 0.492898239 0.000000000
v 0.881924123 0.471396724 0.000000000
v 0.893224104 0.449611358 0.000000000
v 0.903990028 0.427555122 0.000000000
v 0.914213417 0.405241262 0.000000000
v 0.923877317 0.382683420 0.000000000
v 0.932990205 0.359895106 0.000000000
v 0.941543604 0.336889832 0.000000000
v 0.949529037 0.313681770 0.000000000
v 0.956938027 0.290284694 0.000000000
v 0.963779051 0.266712779 0.000000000
v 0.970035155 0.242980195 0.000000000
v 0.975697861 0.219101249 0.000000000
v 0.980784124 0.195090379 0.000000000
v 0.985276990 0.170961888 0.000000000
v 0.989176458 0.146730480 0.000000000
v 0.992482530 0.122410724 0.000000000
v 0.995186726 0.098017126 0.000000000
v 0.997289048 0.073564584 0.000000000
v 0.998797973 0.049067671 0.000000000
v 0.999696546 0.024541220 0.000000000
v 1.000001722 0.000000000 0.000000000
v 0.999696546 -0.024541220 0.000000000
v 0.998797973 -0.049067671 0.000000000
v 0.997289048 -0.073564584 0.000000000
v 0.995186726 -0.098017126 0.000000000
v 0.992482530 -0.122410658 0.000000000
v 0.989176458 -0.146730480 0.000000000
v 0.985276990 -0.170961888 0.000000000
v 0.980784124 -0.195090312 0.000000000
v 0.975697861 -0.219101249 0.000000000
v 0.970035155 -0.242980195 0.000000000
v 0.963779051 -0.266712779 0.000000000
v 0.956938027 -0.290284694 0.000000000
v 0.949529037 -0.313681770 0.000000000
v 0.941543604 -0.336889832 0.000000000
v 0.932990205 -0.359895040 0.000000000
v 0.923877317 -0.382683420 0.000000000
v 0.914213417 -0.405241328 0.000000000
v 0.903990028 -0.427555122 0.000000000
v 0.893224104 -0.449611325 0.000000000
v 0.881924123 -0.471396724 0.000000000
v 0.870090084 -0.492898206 0.000000000
v 0.857730464 -0.514102757 0.000000000
v 0.844853741 -0.534997630 0.000000000
v 0.831468392 -0.555570207 0.000000000
v 0.817582894 -0.575808169 0.000000000
v 0.803205723 -0.595699300 0.000000000
v 0.788345358 -0.615231610 0.000000000
v 0.773010274 -0.634393311 0.000000000
v 0.757208950 -0.653172815 0.000000000
v 0.740949862 -0.671558928 0.000000000
v 0.724249965 -0.689540524 0.000000000
v 0.707109258 -0.707106808 0.000000000
v 0.689544696 -0.724247051 0.000000000
v 0.671556279 -0.740951121 0.000000000
v 0.653169437 -0.757208818 0.000000000
v 0.634392649 -0.773010473 0.000000000
v 0.615234391 -0.788346417 0.000000000
v 0.595703141 -0.803207511 0.000000000
v 0.575807375 -0.817584814 0.000000000
v 0.555572524 -0.831469584 0.000000000
v 0.534998590 -0.844853543 0.000000000
v 0.514102526 -0.857728610 0.000000000
v 0.492901285 -0.870086971 0.000000000
v 0.471394869 -0.881921275 0.000000000
v 0.449608709 -0.893224303 0.000000000
v 0.427551281 -0.903989299 0.000000000
v 0.405239540 -0.914209774 0.000000000
v 0.382681963 -0.923879502 0.000000000
v 0.359895504 -0.932992788 0.000000000
v 0.336888640 -0.941544068 0.000000000
v 0.313678326 -0.949528176 0.000000000
v 0.290281515 -0.956940345 0.000000000
v 0.266715163 -0.963776071 0.000000000
v 0.242979268 -0.970031247 0.000000000
v 0.219099263 -0.975702100 0.000000000
v 0.195092100 -0.980785250 0.000000000
v 0.170957782 -0.985277652 0.000000000
v 0.146730215 -0.989176525 0.000000000
v 0.122409400 -0.992479549 0.000000000
v 0.098020768 -0.995184739 0.000000000
v 0.073564319 -0.997290439 0.000000000
v 0.049065485 -0.998795456 0.000000000
v 0.024541220 -0.999698798 0.000000000
v 0.000000000 -1.000000000 0.000000000
v -0.024541220 -0.999698798 0.000000000
v -0.049065485 -0.998795456 0.000000000
v -0.073564319 -0.997290439 0.000000000
v -0.098020768 -0.995184739 0.000000000
v -0.122409400 -0.992479549 0.000000000
v -0.146730215 -0.989176525 0.000000000
v -0.170957782 -0.985277652 0.000000000
v -0.195092100 -0.980785250 0.000000000
v -0.219099263 -0.975702100 0.000000000
v -0.242979268 -0.970031247 0.000000000
v -0.266715163 -0.963776071 0.000000000
v -0.290281515 -0.956940345 0.000000000
v -0.313678326 -0.949528176 0.000000000
v -0.336888640 -0.941544068 0.000000000
v -0.359895504 -0.932992788 0.000000000
v -0.382681963 -0.923879502 0.000000000
v -0.405239540 -0.914209774 0.000000000
v -0.427551281 -0.903989299 0.000000000
v -0.449608709 -0.893224303 0.000000000
v -0.471394869 -0.881921275 0.000000000
v -0.492901285 -0.870086971 0.000000000
v -0.514102526 -0.857728610 0.000000000
v -0.534998590 -0.844853543 0.000000000
v -0.555572524 -0.831469584 0.000000000
v -0.575807375 -0.817584814 0.000000000
v -0.595703141 -0.803207511 0.000000000
v -0.615234391 -0.788346417 0.000000000
v -0.634392649 -0.773010473 0.000000000
v -0.653169437 -0.757208818 0.000000000
v -0.671556279 -0.740951121 0.000000000
v -0.689544696 -0.724247051 0.000000000
v -0.707109258 -0.707106808 0.000000000
v -0.724249965 -0.689540524 0.000000000
v -0.740949862 -0.671558928 0.000000000
v -0.757208950 -0.653172815 0.000000000
v -0.773010274 -0.634393311 0.000000000
v -0.788345358 -0.615231610 0.000000000
v -0.803205723 -0.595699300 0.000000000
v -0.817582894 -0.575808169 0.000000000
v -0.831468392 -0.555570207 0.000000000
v -0.844853741 -0.534997630 0.000000000
v -0.857730464 -0.514102757 0.000000000
v -0.870090084 -0.492898206 0.000000000
v -0.881924123 -0.471396724 0.000000000
v -0.893224104 -0.449611325 0.000000000
v -0.903990028 -0.427555122 0.000000000
v -0.914213417 -0.405241328 0.000000000
v -0.923877317 -0.382683420 0.000000000
v -0.932990205 -0.359895040 0.000000000
v -0.941543604 -0.336889832 0.000000000
v -0.949529037 -0.313681770 0.000000000
v -0.956938027 -0.290284694 0.000000000
v -0.963779051 -0.266712779 0.000000000
v -0.970035155 -0.242980195 0.000000000
v -0.975697861 -0.219101249 0.000000000
v -0.980784124 -0.195090312 0.000000000
v -0.985276990 -0.170961888 0.000000000
v -0.989176458 -0.146730480 0.000000000
v -0.992482530 -0.122410658 0.000000000
v -0.995186726 -0.098017126 0.000000000
v -0.997289048 -0.073564584 0.000000000
v -0.998797973 -0.049067671 0.000000000
v -0.999696546 -0.024541220 0.000000000
v -1.000001722 0.000000000 0.000000000
v -0.999696546 0.024541220 0.000000000
v -0.998797973 0.049067671 0.000000000
v -0.997289048 0.073564584 0.000000000
v -0.995186726 0.098017126 0.000000000
v -0.992482530 0.122410724 0.000000000
v -0.989176458 0.146730480 0.000000000
v -0.985276990 0.170961888 0.000000000
v -0.980784124 0.195090379 0.000000000
v -0.975697861 0.219101249 0.000000000
v -0.970035155 0.242980195 0.000000000
v -0.963779051 0.266712779 0.000000000
v -0.956938027 0.290284694 0.000000000
v -0.949529037 0.313681770 0.000000000
v -0.941543604 0.336889832 0.000000000
v -0.932990205 0.359895106 0.000000000
v -0.923877317 0.382683420 0.000000000
v -0.914213417 0.405241262 0.000000000
v -0.903990028 0.427555122 0.000000000
v -0.893224104 0.449611358 0.000000000
v -0.881924123 0.471396724 0.000000000
v -0.870090084 0.492898239 0.000000000
v -0.857730464 0.514102790 0.000000000
v -0.844853741 0.534997663 0.000000000
v -0.831468392 0.555570273 0.000000000
v -0.817582894 0.575808169 0.000000000
v -0.803205723 0.595699300 0.000000000
v -0.788345358 0.615231610 0.000000000
v -0.773010274 0.634393311 0.000000000
v -0.757208950 0.653172749 0.000000000
v -0.740949862 0.671558928 0.000000000
v -0.724249965 0.689540590 0.000000000
v -0.707109258 0.707106741 0.000000000
v -0.689544696 0.724247051 0.000000000
v -0.671556279 0.740951054 0.000000000
v -0.653169437 0.757208818 0.000000000
v -0.634392649 0.773010407 0.000000000
v -0.615234391 0.788346417 0.000000000
v -0.595703141 0.803207445 0.000000000
v -0.575807375 0.817584881 0.000000000
v -0.555572524 0.831469584 0.000000000
v -0.534998590 0.844853609 0.000000000
v -0.514102526 0.857728610 0.000000000
v -0.492901285 0.870087037 0.000000000
v -0.471394869 0.881921341 0.000000000
v -0.449608709 0.893224237 0.000000000
v -0.427551281 0.903989365 0.000000000
v -0.405239540 0.914209840 0.000000000
v -0.382681963 0.923879568 0.000000000
v -0.359895504 0.932992721 0.000000000
v -0.336888640 0.941544001 0.000000000
v -0.313678326 0.949528110 0.000000000
v -0.290281515 0.956940279 0.000000000
v -0.266715163 0.963776005 0.000000000
v -0.242979268 0.970031314 0.000000000
v -0.219099263 0.975702100 0.000000000
v -0.195092100 0.980785316 0.000000000
v -0.170957782 0.985277652 0.000000000
v -0.146730215 0.989176591 0.000000000
v -0.122409400 0.992479483 0.000000000
v -0.098020768 0.995184739 0.000000000
v -0.073564319 0.997290505 0.000000000
v -0.049065485 0.998795456 0.000000000
v -0.024541220 0.999698798 0.000000000
usemtl carbide_gold
f 1 256 255
f 255 254 253
f 253 252 251
f 251 250 249
f 249 248 247
f 247 246 245
f 245 244 243
f 243 242 241
f 241 240 239
f 239 238 237
f 237 236 235
f 235 234 233
f 233 232 231
f 231 230 229
f 229 228 227
f 227 226 225
f 225 224 223
f 223 222 221
f 221 220 219
f 219 218 217
f 217 216 215
f 215 214 213
f 213 212 211
f 211 210 209
f 209 208 207
f 207 206 205
f 205 204 203
f 203 202 201
f 201 200 199
f 199 198 197
f 197 196 195
f 195 194 193
f 193 192 191
f 191 190 189
f 189 188 187
f 187 186 185
f 185 184 183
f 183 182 181
f 181 180 179
f 179 178 177
f 177 176 175
f 175 174 173
f 173 172 171
f 171 170 169
f 169 168 167
f 167 166 165
f 165 164 163
f 163 162 161
f 161 160 159
f 159 158 157
f 157 156 155
f 155 154 153
f 153 152 151
f 151 150 149
f 149 148 147
f 147 146 145
f 145 144 143
f 143 142 141
f 141 140 139
f 139 138 137
f 137 136 135
f 135 134 133
f 133 132 131
f 131 130 129
f 129 128 127
f 127 126 125
f 125 124 123
f 123 122 121
f 121 120 119
f 119 118 117
f 117 116 115
f 115 114 113
f 113 112 111
f 111 110 109
f 109 108 107
f 107 106 105
f 105 104 103
f 103 102 101
f 101 100 99
f 99 98 97
f 97 96 95
f 95 94 93
f 93 92 91
f 91 90 89
f 89 88 87
f 87 86 85
f 85 84 83
f 83 82 81
f 81 80 79
f 79 78 77
f 77 76 75
f 75 74 73
f 73 72 71
f 71 70 69
f 69 68 67
f 67 66 65
f 65 64 63
f 63 62 61
f 61 60 59
f 59 58 57
f 57 56 55
f 55 54 53
f 53 52 51
f 51 50 49
f 49 48 47
f 47 46 45
f 45 44 43
f 43 42 41
f 41 40 39
f 39 38 37
f 37 36 35
f 35 34 33
f 33 32 31
f 31 30 29
f 29 28 27
f 27 26 25
f 25 24 23
f 23 22 21
f 21 20 19
f 19 18 17
f 17 16 15
f 15 14 13
f 13 12 11
f 11 10 9
f 9 8 7
f 7 6 5
f 5 4 3
f 3 2 1
f 1 255 253
f 253 251 249
f 249 247 245
f 245 243 241
f 241 239 237
f 237 235 233
f 233 231 229
f 229 227 225
f 225 223 221
f 221 219 217
f 217 215 213
f 213 211 209
f 209 207 205
f 205 203 201
f 201 199 197
f 197 195 193
f 193 191 189
f 189 187 185
f 185 183 181
f 181 179 177
f 177 175 173
f 173 171 169
f 169 167 165
f 165 163 161
f 161 159 157
f 157 155 153
f 153 151 149
f 149 147 145
f 145 143 141
f 141 139 137
f 137 135 133
f 133 131 129
f 129 127 125
f 125 123 121
f 121 119 117
f 117 115 113
f 113 111 109
f 109 107 105
f 105 103 101
f 101 99 97
f 97 95 93
f 93 91 89
f 89 87 85
f 85 83 81
f 81 79 77
f 77 75 73
f 73 71 69
f 69 67 65
f 65 63 61
f 61 59 57
f 57 55 53
f 53 51 49
f 49 47 45
f 45 43 41
f 41 39 37
f 37 35 33
f 33 31 29
f 29 27 25
f 25 23 21
f 21 19 17
f 17 15 13
f 13 11 9
f 9 7 5
f 5 3 1
f 1 253 249
f 249 245 241
f 241 237 233
f 233 229 225
f 225 221 217
f 217 213 209
f 209 205 201
f 201 197 193
f 193 189 185
f 185 181 177
f 177 173 169
f 169 165 161
f 161 157 153
f 153 149 145
f 145 141 137
f 137 133 129
f 129 125 121
f 121 117 113
f 113 109 105
f 105 101 97
f 97 93 89
f 89 85 81
f 81 77 73
f 73 69 65
f 65 61 57
f 57 53 49
f 49 45 41
f 41 37 33
f 33 29 25
f 25 21 17
f 17 13 9
f 9 5 1
f 1 249 241
f 241 233 225
f 225 217 209
f 209 201 193
f 193 185 177
f 177 169 161
f 161 153 145
f 145 137 129
f 129 121 113
f 113 105 97
f 97 89 81
f 81 73 65
f 65 57 49
f 49 41 33
f 33 25 17
f 17 9 1
f 1 241 225
f 225 209 193
f 193 177 161
f 161 145 129
f 129 113 97
f 97 81 65
f 65 49 33
f 33 17 1
f 1 225 193
f 193 161 129
f 129 97 65
f 65 33 1
f 1 193 129
f 129 65 1
f 512 257 258
f 258 259 260
f 260 261 262
f 262 263 264
f 264 265 266
f 266 267 268
f 268 269 270
f 270 271 272
f 272 273 274
f 274 275 276
f 276 277 278
f 278 279 280
f 280 281 282
f 282 283 284
f 284 285 286
f 286 287 288
f 288 289 290
f 290 291 292
f 292 293 294
f 294 295 296
f 296 297 298
f 298 299 300
f 300 301 302
f 302 303 304
f 304 305 306
f 306 307 308
f 308 309 310
f 310 311 312
f 312 313 314
f 314 315 316
f 316 317 318
f 318 319 320
f 320 321 322
f 322 323 324
f 324 325 326
f 326 327 328
f 328 329 330
f 330 331 332
f 332 333 334
f 334 335 336
f 336 337 338
f 338 339 340
f 340 341 342
f 342 343 344
f 344 345 346
f 346 347 348
f 348 349 350
f 350 351 352
f 352 353 354
f 354 355 356
f 356 357 358
f 358 359 360
f 360 361 362
f 362 363 364
f 364 365 366
f 366 367 368
f 368 369 370
f 370 371 372
f 372 373 374
f 374 375 376
f 376 377 378
f 378 379 380
f 380 381 382
f 382 383 384
f 384 385 386
f 386 387 388
f 388 389 390
f 390 391 392
f 392 393 394
f 394 395 396
f 396 397 398
f 398 399 400
f 400 401 402
f 402 403 404
f 404 405 406
f 406 407 408
f 408 409 410
f 410 411 412
f 412 413 414
f 414 415 416
f 416 417 418
f 418 419 420
f 420 421 422
f 422 423 424
f 424 425 426
f 426 427 428
f 428 429 430
f 430 431 432
f 432 433 434
f 434 435 436
f 436 437 438
f 438 439 440
f 440 441 442
f 442 443 444
f 444 445 446
f 446 447 448
f 448 449 450
f 450 451 452
f 452 453 454
f 454 455 456
f 456 457 458
f 458 459 460
f 460 461 462
f 462 463 464
f 464 465 466
f 466 467 468
f 468 469 470
f 470 471 472
f 472 473 474
f 474 475 476
f 476 477 478
f 478 479 480
f 480 481 482
f 482 483 484
f 484 485 486
f 486 487 488
f 488 489 490
f 490 491 492
f 492 493 494
f 494 495 496
f 496 497 498
f 498 499 500
f 500 501 502
f 502 503 504
f 504 505 506
f 506 507 508
f 508 509 510
f 510 511 512
f 512 258 260
f 260 262 264
f 264 266 268
f 268 270 272
f 272 274 276
f 276 278 280
f 280 282 284
f 284 286 288
f 288 290 292
f 292 294 296
f 296 298 300
f 300 302 304
f 304 306 308
f 308 310 312
f 312 314 316
f 316 318 320
f 320 322 324
f 324 326 328
f 328 330 332
f 332 334 336
f 336 338 340
f 340 342 344
f 344 346 348
f 348 350 352
f 352 354 356
f 356 358 360
f 360 362 364
f 364 366 368
f 368 370 372
f 372 374 376
f 376 378 380
f 380 382 384
f 384 386 388
f 388 390 392
f 392 394 396
f 396 398 400
f 400 402 404
f 404 406 408
f 408 410 412
f 412 414 416
f 416 418 420
f 420 422 424
f 424 426 428
f 428 430 432
f 432 434 436
f 436 438 440
f 440 442 444
f 444 446 448
f 448 450 452
f 452 454 456
f 456 458 460
f 460 462 464
f 464 466 468
f 468 470 472
f 472 474 476
f 476 478 480
f 480 482 484
f 484 486 488
f 488 490 492
f 492 494 496
f 496 498 500
f 500 502 504
f 504 506 508
f 508 510 512
f 512 260 264
f 264 268 272
f 272 276 280
f 280 284 288
f 288 292 296
f 296 300 304
f 304 308 312
f 312 316 320
f 320 324 328
f 328 332 336
f 336 340 344
f 344 348 352
f 352 356 360
f 360 364 368
f 368 372 376
f 376 380 384
f 384 388 392
f 392 396 400
f 400 404 408
f 408 412 416
f 416 420 424
f 424 428 432
f 432 436 440
f 440 444 448
f 448 452 456
f 456 460 464
f 464 468 472
f 472 476 480
f 480 484 488
f 488 492 496
f 496 500 504
f 504 508 512
f 512 264 272
f 272 280 288
f 288 296 304
f 304 312 320
f 320 328 336
f 336 344 352
f 352 360 368
f 368 376 384
f 384 392 400
f 400 408 416
f 416 424 432
f 432 440 448
f 448 456 464
f 464 472 480
f 480 488 496
f 496 504 512
f 512 272 288
f 288 304 320
f 320 336 352
f 352 368 384
f 384 400 416
f 416 432 448
f 448 464 480
f 480 496 512
f 512 288 320
f 320 352 384
f 384 416 448
f 448 480 512
f 512 320 384
f 384 448 512
f 1 2 258
f 1 258 257
f 2 3 259
f 2 259 258
f 3 4 260
f 3 260 259
f 4 5 261
f 4 261 260
f 5 6 262
f 5 262 261
f 6 7 263
f 6 263 262
f 7 8 264
f 7 264 263
f 8 9 265
f 8 265 264
f 9 10 266
f 9 266 265
f 10 11 267
f 10 267 266
f 11 12 268
f 11 268 267
f 12 13 269
f 12 269 268
f 13 14 270
f 13 270 269
f 14 15 271
f 14 271 270
f 15 16 272
f 15 272 271
f 16 17 273
f 16 273 272
f 17 18 274
f 17 274 273
f 18 19 275
f 18 275 274
f 19 20 276
f 19 276 275
f 20 21 277
f 20 277 276
f 21 22 278
f 21 278 277
f 22 23 279
f 22 279 278
f 23 24 280
f 23 280 279
f 24 25 281
f 24 281 280
f 25 26 282
f 25 282 281
f 26 27 283
f 26 283 282
f 27 28 284
f 27 284 283
f 28 29 285
f 28 285 284
f 29 30 286
f 29 286 285
f 30 31 287
f 30 287 286
f 31 32 288
f 31 288 287
f 32 33 289
f 32 289 288
f 33 34 290
f 33 290 289
f 34 35 291
f 34 291 290
f 35 36 292
f 35 292 291
f 36 37 293
f 36 293 292
f 37 38 294
f 37 294 293
f 38 39 295
f 38 295 294
f 39 40 296
f 39 296 295
f 40 41 297
f 40 297 296
f 41 42 298
f 41 298 297
f 42 43 299
f 42 299 298
f 43 44 300
f 43 300 299
f 44 45 301
f 44 301 300
f 45 46 302
f 45 302 301
f 46 47 303
f 46 303 302
f 47 48 304
f 47 304 303
f 48 49 305
f 48 305 304
f 49 50 306
f 49 306 305
f 50 51 307
f 50 307 306
f 51 52 308
f 51 308 307
f 52 53 309
f 52 309 308
f 53 54 310
f 53 310 309
f 54 55 311
f 54 311 310
f 55 56 312
f 55 312 311
f 56 57 313
f 56 313 312
f 57 58 314
f 57 314 313
f 58 59 315
f 58 315 314
f 59 60 316
f 59 316 315
f 60 61 317
f 60 317 316
f 61 62 318
f 61 318 317
f 62 63 319
f 62 319 318
f 63 64 320
f 63 320 319
f 64 65 321
f 64 321 320
f 65 66 322
f 65 322 321
f 66 67 323
f 66 323 322
f 67 68 324
f 67 324 323
f 68 69 325
f 68 325 324
f 69 70 326
f 69 326 325
f 70 71 327
f 70 327 326
f 71 72 328
f 71 328 327
f 72 73 329
f 72 329 328
f 73 74 330
f 73 330 329
f 74 75 331
f 74 331 330
f 75 76 332
f 75 332 331
f 76 77 333
f 76 333 332
f 77 78 334
f 77 334 333
f 78 79 335
f 78 335 334
f 79 80 336
f 79 336 335
f 80 81 337
f 80 337 336
f 81 82 338
f 81 338 337
f 82 83 339
f 82 339 338
f 83 84 340
f 83 340 339
f 84 85 341
f 84 341 340
f 85 86 342
f 85 342 341
f 86 87 343
f 86 343 342
f 87 88 344
f 87 344 343
f 88 89 345
f 88 345 344
f 89 90 346
f 89 346 345
f 90 91 347
f 90 347 346
f 91 92 348
f 91 348 347
f 92 93 349
f 92 349 348
f 93 94 350
f 93 350 349
f 94 95 351
f 94 351 350
f 95 96 352
f 95 352 351
f 96 97 353
f 96 353 352
f 97 98 354
f 97 354 353
f 98 99 355
f 98 355 354
f 99 100 356
f 99 356 355
f 100 101 357
f 100 357 356
f 101 102 358
f 101 358 357
f 102 103 359
f 102 359 358
f 103 104 360
f 103 360 359
f 104 105 361
f 104 361 360
f 105 106 362
f 105 362 361
f 106 107 363
f 106 363 362
f 107 108 364
f 107 364 363
f 108 109 365
f 108 365 364
f 109 110 366
f 109 366 365
f 110 111 367
f 110 367 366
f 111 112 368
f 111 368 367
f 112 113 369
f 112 369 368
f 113 114 370
f 113 370 369
f 114 115 371
f 114 371 370
f 115 116 372
f 115 372 371
f 116 117 373
f 116 373 372
f 117 118 374
f 117 374 373
f 118 119 375
f 118 375 374
f 119 120 376
f 119 376 375
f 120 121 377
f 120 377 376
f 121 122 378
f 121 378 377
f 122 123 379
f 122 379 378
f 123 124 380
f 123 380 379
f 124 125 381
f 124 381 380
f 125 126 382
f 125 382 381
f 126 127 383
f 126 383 382
f 127 128 384
f 127 384 383
f 128 129 385
f 128 385 384
f 129 130 386
f 129 386 385
f 130 131 387
f 130 387 386
f 131 132 388
f 131 388 387
f 132 133 389
f 132 389 388
f 133 134 390
f 133 390 389
f 134 135 391
f 134 391 390
f 135 136 392
f 135 392 391
f 136 137 393
f 136 393 392
f 137 138 394
f 137 394 393
f 138 139 395
f 138 395 394
f 139 140 396
f 139 396 395
f 140 141 397
f 140 397 396
f 141 142 398
f 141 398 397
f 142 143 399
f 142 399 398
f 143 144 400
f 143 400 399
f 144 145 401
f 144 401 400
f 145 146 402
f 145 402 401
f 146 147 403
f 146 403 402
f 147 148 404
f 147 404 403
f 148 149 405
f 148 405 404
f 149 150 406
f 149 406 405
f 150 151 407
f 150 407 406
f 151 152 408
f 151 408 407
f 152 153 409
f 152 409 408
f 153 154 410
f 153 410 409
f 154 155 411
f 154 411 410
f 155 156 412
f 155 412 411
f 156 157 413
f 156 413 412
f 157 158 414
f 157 414 413
f 158 159 415
f 158 415 414
f 159 160 416
f 159 416 415
f 160 161 417
f 160 417 416
f 161 162 418
f 161 418 417
f 162 163 419
f 162 419 418
f 163 164 420
f 163 420 419
f 164 165 421
f 164 421 420
f 165 166 422
f 165 422 421
f 166 167 423
f 166 423 422
f 167 168 424
f 167 424 423
f 168 169 425
f 168 425 424
f 169 170 426
f 169 426 425
f 170 171 427
f 170 427 426
f 171 172 428
f 171 428 427
f 172 173 429
f 172 429 428
f 173 174 430
f 173 430 429
f 174 175 431
f 174 431 430
f 175 176 432
f 175 432 431
f 176 177 433
f 176 433 432
f 177 178 434
f 177 434 433
f 178 179 435
f 178 435 434
f 179 180 436
f 179 436 435
f 180 181 437
f 180 437 436
f 181 182 438
f 181 438 437
f 182 183 439
f 182 439 438
f 183 184 440
f 183 440 439
f 184 185 441
f 184 441 440
f 185 186 442
f 185 442 441
f 186 187 443
f 186 443 442
f 187 188 444
f 187 444 443
f 188 189 445
f 188 445 444
f 189 190 446
f 189 446 445
f 190 191 447
f 190 447 446
f 191 192 448
f 191 448 447
f 192 193 449
f 192 449 448
f 193 194 450
f 193 450 449
f 194 195 451
f 194 451 450
f 195 196 452
f 195 452 451
f 196 197 453
f 196 453 452
f 197 198 454
f 197 454 453
f 198 199 455
f 198 455 454
f 199 200 456
f 199 456 455
f 200 201 457
f 200 457 456
f 201 202 458
f 201 458 457
f 202 203 459
f 202 459 458
f 203 204 460
f 203 460 459
f 204 205 461
f 204 461 460
f 205 206 462
f 205 462 461
f 206 207 463
f 206 463 462
f 207 208 464
f 207 464 463
f 208 209 465
f 208 465 464
f 209 210 466
f 209 466 465
f 210 211 467
f 210 467 466
f 211 212 468
f 211 468 467
f 212 213 469
f 212 469 468
f 213 214 470
f 213 470 469
f 214 215 471
f 214 471 470
f 215 216 472
f 215 472 471
f 216 217 473
f 216 473 472
f 217 218 474
f 217 474 473
f 218 219 475
f 218 475 474
f 219 220 476
f 219 476 475
f 220 221 477
f 220 477 476
f 221 222 478
f 221 478 477
f 222 223 479
f 222 479 478
f 223 224 480
f 223 480 479
f 224 225 481
f 224 481 480
f 225 226 482
f 225 482 481
f 226 227 483
f 226 483 482
f 227 228 484
f 227 484 483
f 228 229 485
f 228 485 484
f 229 230 486
f 229 486 485
f 230 231 487
f 230 487 486
f 231 232 488
f 231 488 487
f 232 233 489
f 232 489 488
f 233 234 490
f 233 490 489
f 234 235 491
f 234 491 490
f 235 236 492
f 235 492 491
f 236 237 493
f 236 493 492
f 237 238 494
f 237 494 493
f 238 239 495
f 238 495 494
f 239 240 496
f 239 496 495
f 240 241 497
f 240 497 496
f 241 242 498
f 241 498 497
f 242 243 499
f 242 499 498
f 243 244 500
f 243 500 499
f 244 245 501
f 244 501 500
f 245 246 502
f 245 502 501
f 246 247 503
f 246 503 502
f 247 248 504
f 247 504 503
f 248 249 505
f 248 505 504
f 249 250 506
f 249 506 505
f 250 251 507
f 250 507 506
f 251 252 508
f 251 508 507
f 252 253 509
f 252 509 508
f 253 254 510
f 253 510 509
f 254 255 511
f 254 511 510
f 255 256 512
f 255 512 511
f 256 1 257
f 256 257 512
o round_button_insert_screw_head
v 0.268868348 0.000000000 -0.182999969
v 0.279998787 0.000000000 -0.262999892
v 0.276743578 0.000000000 -0.206431270
v 0.268868348 0.000000000 -1.032999873
v 0.279998787 0.000000000 -0.952999949
v 0.276743578 0.000000000 -1.009568572
v 0.266910136 0.032408503 -0.182999969
v 0.277955804 0.033750270 -0.262999892
v 0.274726027 0.033357277 -0.206431270
v 0.266910136 0.032408503 -1.032999873
v 0.277955804 0.033750270 -0.952999949
v 0.274726027 0.033357277 -1.009568572
v 0.261052456 0.064344474 -0.182999969
v 0.271860766 0.067008404 -0.262999892
v 0.268698805 0.066228180 -0.206431270
v 0.261052456 0.064344474 -1.032999873
v 0.271860766 0.067008404 -0.952999949
v 0.268698805 0.066228180 -1.009568572
v 0.251397034 0.095342003 -0.182999969
v 0.261806919 0.099289354 -0.262999892
v 0.258755161 0.098133222 -0.206431270
v 0.251397034 0.095342003 -1.032999873
v 0.261806919 0.099289354 -0.952999949
v 0.258755161 0.098133222 -1.009568572
v 0.238071024 0.124949485 -0.182999969
v 0.247929898 0.130122506 -0.262999892
v 0.245039205 0.128607356 -0.206431270
v 0.238071024 0.124949485 -1.032999873
v 0.247929898 0.130122506 -0.952999949
v 0.245039205 0.128607356 -1.009568572
v 0.221277879 0.152734787 -0.182999969
v 0.230433152 0.159058178 -0.262999892
v 0.227754387 0.157206063 -0.206431270
v 0.221277879 0.152734787 -1.032999873
v 0.230433152 0.159058178 -0.952999949
v 0.227754387 0.157206063 -1.009568572
v 0.201254956 0.178292862 -0.182999969
v 0.209579473 0.185674301 -0.262999892
v 0.207146544 0.183512375 -0.206431270
v 0.201254956 0.178292862 -1.032999873
v 0.209579473 0.185674301 -0.952999949
v 0.207146544 0.183512375 -1.009568572
v 0.178290478 0.201250982 -0.182999969
v 0.185674036 0.209583050 -0.262999892
v 0.183512375 0.207142703 -0.206431270
v 0.178290478 0.201250982 -1.032999873
v 0.185674036 0.209583050 -0.952999949
v 0.183512375 0.207142703 -1.009568572
v 0.152732005 0.221274567 -0.182999969
v 0.159055926 0.230435536 -0.262999892
v 0.157207917 0.227752268 -0.206431270
v 0.152732005 0.221274567 -1.032999873
v 0.159055926 0.230435536 -0.952999949
v 0.157207917 0.227752268 -1.009568572
v 0.124952532 0.238071289 -0.182999969
v 0.130123566 0.247927646 -0.262999892
v 0.128606164 0.245040794 -0.206431270
v 0.124952532 0.238071289 -1.032999873
v 0.130123566 0.247927646 -0.952999949
v 0.128606164 0.245040794 -1.009568572
v 0.095342003 0.251396504 -0.182999969
v 0.099292334 0.261804535 -0.262999892
v 0.098130970 0.258756088 -0.206431270
v 0.095342003 0.251396504 -1.032999873
v 0.099292334 0.261804535 -0.952999949
v 0.098130970 0.258756088 -1.009568572
v 0.064341229 0.261055768 -0.182999969
v 0.067011517 0.271863680 -0.262999892
v 0.066231623 0.268698143 -0.206431270
v 0.064341229 0.261055768 -1.032999873
v 0.067011517 0.271863680 -0.952999949
v 0.066231623 0.268698143 -1.009568572
v 0.032407973 0.266908282 -0.182999969
v 0.033747356 0.277958453 -0.262999892
v 0.033357409 0.274721921 -0.206431270
v 0.032407973 0.266908282 -1.032999873
v 0.033747356 0.277958453 -0.952999949
v 0.033357409 0.274721921 -1.009568572
v 0.000000000 0.268868612 -0.182999969
v 0.000000000 0.279999979 -0.262999892
v 0.000000000 0.276739737 -0.206431270
v 0.000000000 0.268868612 -1.032999873
v 0.000000000 0.279999979 -0.952999949
v 0.000000000 0.276739737 -1.009568572
v -0.032407973 0.266908282 -0.182999969
v -0.033747356 0.277958453 -0.262999892
v -0.033357409 0.274721921 -0.206431270
v -0.032407973 0.266908282 -1.032999873
v -0.033747356 0.277958453 -0.952999949
v -0.033357409 0.274721921 -1.009568572
v -0.064341229 0.261055768 -0.182999969
v -0.067011517 0.271863680 -0.262999892
v -0.066231623 0.268698143 -0.206431270
v -0.064341229 0.261055768 -1.032999873
v -0.067011517 0.271863680 -0.952999949
v -0.066231623 0.268698143 -1.009568572
v -0.095342003 0.251396504 -0.182999969
v -0.099292334 0.261804535 -0.262999892
v -0.098130970 0.258756088 -0.206431270
v -0.095342003 0.251396504 -1.032999873
v -0.099292334 0.261804535 -0.952999949
v -0.098130970 0.258756088 -1.009568572
v -0.124952532 0.238071289 -0.182999969
v -0.130123566 0.247927646 -0.262999892
v -0.128606164 0.245040794 -0.206431270
v -0.124952532 0.238071289 -1.032999873
v -0.130123566 0.247927646 -0.952999949
v -0.128606164 0.245040794 -1.009568572
v -0.152732005 0.221274567 -0.182999969
v -0.159055926 0.230435536 -0.262999892
v -0.157207917 0.227752268 -0.206431270
v -0.152732005 0.221274567 -1.032999873
v -0.159055926 0.230435536 -0.952999949
v -0.157207917 0.227752268 -1.009568572
v -0.178290478 0.201250982 -0.182999969
v -0.185674036 0.209583050 -0.262999892
v -0.183512375 0.207142703 -0.206431270
v -0.178290478 0.201250982 -1.032999873
v -0.185674036 0.209583050 -0.952999949
v -0.183512375 0.207142703 -1.009568572
v -0.201254956 0.178292862 -0.182999969
v -0.209579473 0.185674301 -0.262999892
v -0.207146544 0.183512375 -0.206431270
v -0.201254956 0.178292862 -1.032999873
v -0.209579473 0.185674301 -0.952999949
v -0.207146544 0.183512375 -1.009568572
v -0.221277879 0.152734787 -0.182999969
v -0.230433152 0.159058178 -0.262999892
v -0.227754387 0.157206063 -0.206431270
v -0.221277879 0.152734787 -1.032999873
v -0.230433152 0.159058178 -0.952999949
v -0.227754387 0.157206063 -1.009568572
v -0.238071024 0.124949485 -0.182999969
v -0.247929898 0.130122506 -0.262999892
v -0.245039205 0.128607356 -0.206431270
v -0.238071024 0.124949485 -1.032999873
v -0.247929898 0.130122506 -0.952999949
v -0.245039205 0.128607356 -1.009568572
v -0.251397034 0.095342003 -0.182999969
v -0.261806919 0.099289354 -0.262999892
v -0.258755161 0.098133222 -0.206431270
v -0.251397034 0.095342003 -1.032999873
v -0.261806919 0.099289354 -0.952999949
v -0.258755161 0.098133222 -1.009568572
v -0.261052456 0.064344474 -0.182999969
v -0.271860766 0.067008404 -0.262999892
v -0.268698805 0.066228180 -0.206431270
v -0.261052456 0.064344474 -1.032999873
v -0.271860766 0.067008404 -0.952999949
v -0.268698805 0.066228180 -1.009568572
v -0.266910136 0.032408503 -0.182999969
v -0.277955804 0.033750270 -0.262999892
v -0.274726027 0.033357277 -0.206431270
v -0.266910136 0.032408503 -1.032999873
v -0.277955804 0.033750270 -0.952999949
v -0.274726027 0.033357277 -1.009568572
v -0.268868348 0.000000000 -0.182999969
v -0.279998787 0.000000000 -0.262999892
v -0.276743578 0.000000000 -0.206431270
v -0.268868348 0.000000000 -1.032999873
v -0.279998787 0.000000000 -0.952999949
v -0.276743578 0.000000000 -1.009568572
v -0.266910136 -0.032408503 -0.182999969
v -0.277955804 -0.033750270 -0.262999892
v -0.274726027 -0.033357277 -0.206431270
v -0.266910136 -0.032408503 -1.032999873
v -0.277955804 -0.033750270 -0.952999949
v -0.274726027 -0.033357277 -1.009568572
v -0.261052456 -0.064344474 -0.182999969
v -0.271860766 -0.067008404 -0.262999892
v -0.268698805 -0.066228180 -0.206431270
v -0.261052456 -0.064344474 -1.032999873
v -0.271860766 -0.067008404 -0.952999949
v -0.268698805 -0.066228180 -1.009568572
v -0.251397034 -0.095342003 -0.182999969
v -0.261806919 -0.099289354 -0.262999892
v -0.258755161 -0.098133222 -0.206431270
v -0.251397034 -0.095342003 -1.032999873
v -0.261806919 -0.099289354 -0.952999949
v -0.258755161 -0.098133222 -1.009568572
v -0.238071024 -0.124949551 -0.182999969
v -0.247929898 -0.130122506 -0.262999892
v -0.245039205 -0.128607356 -0.206431270
v -0.238071024 -0.124949551 -1.032999873
v -0.247929898 -0.130122506 -0.952999949
v -0.245039205 -0.128607356 -1.009568572
v -0.221277879 -0.152734787 -0.182999969
v -0.230433152 -0.159058178 -0.262999892
v -0.227754387 -0.157206063 -0.206431270
v -0.221277879 -0.152734787 -1.032999873
v -0.230433152 -0.159058178 -0.952999949
v -0.227754387 -0.157206063 -1.009568572
v -0.201254956 -0.178292928 -0.182999969
v -0.209579473 -0.185674368 -0.262999892
v -0.207146544 -0.183512375 -0.206431270
v -0.201254956 -0.178292928 -1.032999873
v -0.209579473 -0.185674368 -0.952999949
v -0.207146544 -0.183512375 -1.009568572
v -0.178290478 -0.201250982 -0.182999969
v -0.185674036 -0.209583050 -0.262999892
v -0.183512375 -0.207142637 -0.206431270
v -0.178290478 -0.201250982 -1.032999873
v -0.185674036 -0.209583050 -0.952999949
v -0.183512375 -0.207142637 -1.009568572
v -0.152732005 -0.221274501 -0.182999969
v -0.159055926 -0.230435470 -0.262999892
v -0.157207917 -0.227752268 -0.206431270
v -0.152732005 -0.221274501 -1.032999873
v -0.159055926 -0.230435470 -0.952999949
v -0.157207917 -0.227752268 -1.009568572
v -0.124952532 -0.238071289 -0.182999969
v -0.130123566 -0.247927712 -0.262999892
v -0.128606164 -0.245040794 -0.206431270
v -0.124952532 -0.238071289 -1.032999873
v -0.130123566 -0.247927712 -0.952999949
v -0.128606164 -0.245040794 -1.009568572
v -0.095342003 -0.251396504 -0.182999969
v -0.099292334 -0.261804535 -0.262999892
v -0.098130970 -0.258756088 -0.206431270
v -0.095342003 -0.251396504 -1.032999873
v -0.099292334 -0.261804535 -0.952999949
v -0.098130970 -0.258756088 -1.009568572
v -0.064341229 -0.261055768 -0.182999969
v -0.067011517 -0.271863746 -0.262999892
v -0.066231623 -0.268698143 -0.206431270
v -0.064341229 -0.261055768 -1.032999873
v -0.067011517 -0.271863746 -0.952999949
v -0.066231623 -0.268698143 -1.009568572
v -0.032407973 -0.266908216 -0.182999969
v -0.033747356 -0.277958453 -0.262999892
v -0.033357409 -0.274721921 -0.206431270
v -0.032407973 -0.266908216 -1.032999873
v -0.033747356 -0.277958453 -0.952999949
v -0.033357409 -0.274721921 -1.009568572
v 0.000000000 -0.268868612 -0.182999969
v 0.000000000 -0.279999979 -0.262999892
v 0.000000000 -0.276739671 -0.206431270
v 0.000000000 -0.268868612 -1.032999873
v 0.000000000 -0.279999979 -0.952999949
v 0.000000000 -0.276739671 -1.009568572
v 0.032407973 -0.266908216 -0.182999969
v 0.033747356 -0.277958453 -0.262999892
v 0.033357409 -0.274721921 -0.206431270
v 0.032407973 -0.266908216 -1.032999873
v 0.033747356 -0.277958453 -0.952999949
v 0.033357409 -0.274721921 -1.009568572
v 0.064341229 -0.261055768 -0.182999969
v 0.067011517 -0.271863746 -0.262999892
v 0.066231623 -0.268698143 -0.206431270
v 0.064341229 -0.261055768 -1.032999873
v 0.067011517 -0.271863746 -0.952999949
v 0.066231623 -0.268698143 -1.009568572
v 0.095342003 -0.251396504 -0.182999969
v 0.099292334 -0.261804535 -0.262999892
v 0.098130970 -0.258756088 -0.206431270
v 0.095342003 -0.251396504 -1.032999873
v 0.099292334 -0.261804535 -0.952999949
v 0.098130970 -0.258756088 -1.009568572
v 0.124952532 -0.238071289 -0.182999969
v 0.130123566 -0.247927712 -0.262999892
v 0.128606164 -0.245040794 -0.206431270
v 0.124952532 -0.238071289 -1.032999873
v 0.130123566 -0.247927712 -0.952999949
v 0.128606164 -0.245040794 -1.009568572
v 0.152732005 -0.221274501 -0.182999969
v 0.159055926 -0.230435470 -0.262999892
v 0.157207917 -0.227752268 -0.206431270
v 0.152732005 -0.221274501 -1.032999873
v 0.159055926 -0.230435470 -0.952999949
v 0.157207917 -0.227752268 -1.009568572
v 0.178290478 -0.201250982 -0.182999969
v 0.185674036 -0.209583050 -0.262999892
v 0.183512375 -0.207142637 -0.206431270
v 0.178290478 -0.201250982 -1.032999873
v 0.185674036 -0.209583050 -0.952999949
v 0.183512375 -0.207142637 -1.009568572
v 0.201254956 -0.178292928 -0.182999969
v 0.209579473 -0.185674368 -0.262999892
v 0.207146544 -0.183512375 -0.206431270
v 0.201254956 -0.178292928 -1.032999873
v 0.209579473 -0.185674368 -0.952999949
v 0.207146544 -0.183512375 -1.009568572
v 0.221277879 -0.152734787 -0.182999969
v 0.230433152 -0.159058178 -0.262999892
v 0.227754387 -0.157206063 -0.206431270
v 0.221277879 -0.152734787 -1.032999873
v 0.230433152 -0.159058178 -0.952999949
v 0.227754387 -0.157206063 -1.009568572
v 0.238071024 -0.124949551 -0.182999969
v 0.247929898 -0.130122506 -0.262999892
v 0.245039205 -0.128607356 -0.206431270
v 0.238071024 -0.124949551 -1.032999873
v 0.247929898 -0.130122506 -0.952999949
v 0.245039205 -0.128607356 -1.009568572
v 0.251397034 -0.095342003 -0.182999969
v 0.261806919 -0.099289354 -0.262999892
v 0.258755161 -0.098133222 -0.206431270
v 0.251397034 -0.095342003 -1.032999873
v 0.261806919 -0.099289354 -0.952999949
v 0.258755161 -0.098133222 -1.009568572
v 0.261052456 -0.064344474 -0.182999969
v 0.271860766 -0.067008404 -0.262999892
v 0.268698805 -0.066228180 -0.206431270
v 0.261052456 -0.064344474 -1.032999873
v 0.271860766 -0.067008404 -0.952999949
v 0.268698805 -0.066228180 -1.009568572
v 0.266910136 -0.032408503 -0.182999969
v 0.277955804 -0.033750270 -0.262999892
v 0.274726027 -0.033357277 -0.206431270
v 0.266910136 -0.032408503 -1.032999873
v 0.277955804 -0.033750270 -0.952999949
v 0.274726027 -0.033357277 -1.009568572
usemtl screw_steel
f 514 520 521
f 514 521 515
f 515 521 519
f 515 519 513
f 523 517 518
f 523 518 524
f 524 518 516
f 524 516 522
f 520 526 527
f 520 527 521
f 521 527 525
f 521 525 519
f 529 523 524
f 529 524 530
f 530 524 522
f 530 522 528
f 526 532 533
f 526 533 527
f 527 533 531
f 527 531 525
f 535 529 530
f 535 530 536
f 536 530 528
f 536 528 534
f 532 538 539
f 532 539 533
f 533 539 537
f 533 537 531
f 541 535 536
f 541 536 542
f 542 536 534
f 542 534 540
f 538 544 545
f 538 545 539
f 539 545 543
f 539 543 537
f 547 541 542
f 547 542 548
f 548 542 540
f 548 540 546
f 544 550 551
f 544 551 545
f 545 551 549
f 545 549 543
f 553 547 548
f 553 548 554
f 554 548 546
f 554 546 552
f 550 556 557
f 550 557 551
f 551 557 555
f 551 555 549
f 559 553 554
f 559 554 560
f 560 554 552
f 560 552 558
f 556 562 563
f 556 563 557
f 557 563 561
f 557 561 555
f 565 559 560
f 565 560 566
f 566 560 558
f 566 558 564
f 562 568 569
f 562 569 563
f 563 569 567
f 563 567 561
f 571 565 566
f 571 566 572
f 572 566 564
f 572 564 570
f 568 574 575
f 568 575 569
f 569 575 573
f 569 573 567
f 577 571 572
f 577 572 578
f 578 572 570
f 578 570 576
f 574 580 581
f 574 581 575
f 575 581 579
f 575 579 573
f 583 577 578
f 583 578 584
f 584 578 576
f 584 576 582
f 580 586 587
f 580 587 581
f 581 587 585
f 581 585 579
f 589 583 584
f 589 584 590
f 590 584 582
f 590 582 588
f 586 592 593
f 586 593 587
f 587 593 591
f 587 591 585
f 595 589 590
f 595 590 596
f 596 590 588
f 596 588 594
f 592 598 599
f 592 599 593
f 593 599 597
f 593 597 591
f 601 595 596
f 601 596 602
f 602 596 594
f 602 594 600
f 598 604 605
f 598 605 599
f 599 605 603
f 599 603 597
f 607 601 602
f 607 602 608
f 608 602 600
f 608 600 606
f 604 610 611
f 604 611 605
f 605 611 609
f 605 609 603
f 613 607 608
f 613 608 614
f 614 608 606
f 614 606 612
f 610 616 617
f 610 617 611
f 611 617 615
f 611 615 609
f 619 613 614
f 619 614 620
f 620 614 612
f 620 612 618
f 616 622 623
f 616 623 617
f 617 623 621
f 617 621 615
f 625 619 620
f 625 620 626
f 626 620 618
f 626 618 624
f 622 628 629
f 622 629 623
f 623 629 627
f 623 627 621
f 631 625 626
f 631 626 632
f 632 626 624
f 632 624 630
f 628 634 635
f 628 635 629
f 629 635 633
f 629 633 627
f 637 631 632
f 637 632 638
f 638 632 630
f 638 630 636
f 634 640 641
f 634 641 635
f 635 641 639
f 635 639 633
f 643 637 638
f 643 638 644
f 644 638 636
f 644 636 642
f 640 646 647
f 640 647 641
f 641 647 645
f 641 645 639
f 649 643 644
f 649 644 650
f 650 644 642
f 650 642 648
f 646 652 653
f 646 653 647
f 647 653 651
f 647 651 645
f 655 649 650
f 655 650 656
f 656 650 648
f 656 648 654
f 652 658 659
f 652 659 653
f 653 659 657
f 653 657 651
f 661 655 656
f 661 656 662
f 662 656 654
f 662 654 660
f 658 664 665
f 658 665 659
f 659 665 663
f 659 663 657
f 667 661 662
f 667 662 668
f 668 662 660
f 668 660 666
f 664 670 671
f 664 671 665
f 665 671 669
f 665 669 663
f 673 667 668
f 673 668 674
f 674 668 666
f 674 666 672
f 670 676 677
f 670 677 671
f 671 677 675
f 671 675 669
f 679 673 674
f 679 674 680
f 680 674 672
f 680 672 678
f 676 682 683
f 676 683 677
f 677 683 681
f 677 681 675
f 685 679 680
f 685 680 686
f 686 680 678
f 686 678 684
f 682 688 689
f 682 689 683
f 683 689 687
f 683 687 681
f 691 685 686
f 691 686 692
f 692 686 684
f 692 684 690
f 688 694 695
f 688 695 689
f 689 695 693
f 689 693 687
f 697 691 692
f 697 692 698
f 698 692 690
f 698 690 696
f 694 700 701
f 694 701 695
f 695 701 699
f 695 699 693
f 703 697 698
f 703 698 704
f 704 698 696
f 704 696 702
f 700 706 707
f 700 707 701
f 701 707 705
f 701 705 699
f 709 703 704
f 709 704 710
f 710 704 702
f 710 702 708
f 706 712 713
f 706 713 707
f 707 713 711
f 707 711 705
f 715 709 710
f 715 710 716
f 716 710 708
f 716 708 714
f 712 718 719
f 712 719 713
f 713 719 717
f 713 717 711
f 721 715 716
f 721 716 722
f 722 716 714
f 722 714 720
f 718 724 725
f 718 725 719
f 719 725 723
f 719 723 717
f 727 721 722
f 727 722 728
f 728 722 720
f 728 720 726
f 724 730 731
f 724 731 725
f 725 731 729
f 725 729 723
f 733 727 728
f 733 728 734
f 734 728 726
f 734 726 732
f 730 736 737
f 730 737 731
f 731 737 735
f 731 735 729
f 739 733 734
f 739 734 740
f 740 734 732
f 740 732 738
f 736 742 743
f 736 743 737
f 737 743 741
f 737 741 735
f 745 739 740
f 745 740 746
f 746 740 738
f 746 738 744
f 742 748 749
f 742 749 743
f 743 749 747
f 743 747 741
f 751 745 746
f 751 746 752
f 752 746 744
f 752 744 750
f 748 754 755
f 748 755 749
f 749 755 753
f 749 753 747
f 757 751 752
f 757 752 758
f 758 752 750
f 758 750 756
f 754 760 761
f 754 761 755
f 755 761 759
f 755 759 753
f 763 757 758
f 763 758 764
f 764 758 756
f 764 756 762
f 760 766 767
f 760 767 761
f 761 767 765
f 761 765 759
f 769 763 764
f 769 764 770
f 770 764 762
f 770 762 768
f 766 772 773
f 766 773 767
f 767 773 771
f 767 771 765
f 775 769 770
f 775 770 776
f 776 770 768
f 776 768 774
f 772 778 779
f 772 779 773
f 773 779 777
f 773 777 771
f 781 775 776
f 781 776 782
f 782 776 774
f 782 774 780
f 778 784 785
f 778 785 779
f 779 785 783
f 779 783 777
f 787 781 782
f 787 782 788
f 788 782 780
f 788 780 786
f 784 790 791
f 784 791 785
f 785 791 789
f 785 789 783
f 793 787 788
f 793 788 794
f 794 788 786
f 794 786 792
f 790 796 797
f 790 797 791
f 791 797 795
f 791 795 789
f 799 793 794
f 799 794 800
f 800 794 792
f 800 792 798
f 796 802 803
f 796 803 797
f 797 803 801
f 797 801 795
f 805 799 800
f 805 800 806
f 806 800 798
f 806 798 804
f 802 808 809
f 802 809 803
f 803 809 807
f 803 807 801
f 811 805 806
f 811 806 812
f 812 806 804
f 812 804 810
f 808 814 815
f 808 815 809
f 809 815 813
f 809 813 807
f 817 811 812
f 817 812 818
f 818 812 810
f 818 810 816
f 814 820 821
f 814 821 815
f 815 821 819
f 815 819 813
f 823 817 818
f 823 818 824
f 824 818 816
f 824 816 822
f 820 514 515
f 820 515 821
f 821 515 513
f 821 513 819
f 517 823 824
f 517 824 518
f 518 824 822
f 518 822 516
f 819 513 519
f 519 525 531
f 531 537 543
f 543 549 555
f 555 561 567
f 567 573 579
f 579 585 591
f 591 597 603
f 603 609 615
f 615 621 627
f 627 633 639
f 639 645 651
f 651 657 663
f 663 669 675
f 675 681 687
f 687 693 699
f 699 705 711
f 711 717 723
f 723 729 735
f 735 741 747
f 747 753 759
f 759 765 771
f 771 777 783
f 783 789 795
f 795 801 807
f 807 813 819
f 819 519 531
f 531 543 555
f 555 567 579
f 579 591 603
f 603 615 627
f 627 639 651
f 651 663 675
f 675 687 699
f 699 711 723
f 723 735 747
f 747 759 771
f 771 783 795
f 795 807 819
f 819 531 555
f 555 579 603
f 603 627 651
f 651 675 699
f 699 723 747
f 747 771 795
f 795 819 555
f 555 603 651
f 651 699 747
f 747 795 555
f 555 651 747
f 514 517 523
f 514 523 520
f 820 823 517
f 820 517 514
f 528 522 516
f 516 822 816
f 816 810 804
f 804 798 792
f 792 786 780
f 780 774 768
f 768 762 756
f 756 750 744
f 744 738 732
f 732 726 720
f 720 714 708
f 708 702 696
f 696 690 684
f 684 678 672
f 672 666 660
f 660 654 648
f 648 642 636
f 636 630 624
f 624 618 612
f 612 606 600
f 600 594 588
f 588 582 576
f 576 570 564
f 564 558 552
f 552 546 540
f 540 534 528
f 528 516 816
f 816 804 792
f 792 780 768
f 768 756 744
f 744 732 720
f 720 708 696
f 696 684 672
f 672 660 648
f 648 636 624
f 624 612 600
f 600 588 576
f 576 564 552
f 552 540 528
f 528 816 792
f 792 768 744
f 744 720 696
f 696 672 648
f 648 624 600
f 600 576 552
f 552 528 792
f 792 744 696
f 696 648 600
f 600 552 792
f 792 696 600
f 520 523 529
f 520 529 526
f 526 529 535
f 526 535 532
f 532 535 541
f 532 541 538
f 538 541 547
f 538 547 544
f 544 547 553
f 544 553 550
f 550 553 559
f 550 559 556
f 556 559 565
f 556 565 562
f 562 565 571
f 562 571 568
f 568 571 577
f 568 577 574
f 574 577 583
f 574 583 580
f 580 583 589
f 580 589 586
f 586 589 595
f 586 595 592
f 592 595 601
f 592 601 598
f 598 601 607
f 598 607 604
f 604 607 613
f 604 613 610
f 610 613 619
f 610 619 616
f 616 619 625
f 616 625 622
f 622 625 631
f 622 631 628
f 628 631 637
f 628 637 634
f 634 637 643
f 634 643 640
f 640 643 649
f 640 649 646
f 646 649 655
f 646 655 652
f 652 655 661
f 652 661 658
f 658 661 667
f 658 667 664
f 664 667 673
f 664 673 670
f 670 673 679
f 670 679 676
f 676 679 685
f 676 685 682
f 682 685 691
f 682 691 688
f 688 691 697
f 688 697 694
f 694 697 703
f 694 703 700
f 700 703 709
f 700 709 706
f 706 709 715
f 706 715 712
f 712 715 721
f 712 721 718
f 718 721 727
f 718 727 724
f 724 727 733
f 724 733 730
f 730 733 739
f 730 739 736
f 736 739 745
f 736 745 742
f 742 745 751
f 742 751 748
f 748 751 757
f 748 757 754
f 754 757 763
f 754 763 760
f 760 763 769
f 760 769 766
f 766 769 775
f 766 775 772
f 772 775 781
f 772 781 778
f 778 781 787
f 778 787 784
f 784 787 793
f 784 793 790
f 790 793 799
f 790 799 796
f 796 799 805
f 796 805 802
f 802 805 811
f 802 811 808
f 808 811 817
f 808 817 814
f 814 817 823
f 814 823 820
o round_button_insert_screw_hex_socket
v 0.117602881 0.000000000 -0.191499829
v 0.117602881 0.000000000 -1.109500051
v 0.058797202 0.101844605 -0.191499829
v 0.058797202 0.101844605 -1.109500051
v -0.058797202 0.101844605 -0.191499829
v -0.058797202 0.101844605 -1.109500051
v -0.117602881 0.000000000 -0.191499829
v -0.117602881 0.000000000 -1.109500051
v -0.058797202 -0.101844605 -0.191499829
v -0.058797202 -0.101844605 -1.109500051
v 0.058797202 -0.101844605 -0.191499829
v 0.058797202 -0.101844605 -1.109500051
usemtl black_pocket
f 825 826 828
f 825 828 827
f 827 828 830
f 827 830 829
f 829 830 832
f 829 832 831
f 831 832 834
f 831 834 833
f 830 828 826
f 826 836 834
f 834 832 830
f 826 834 830
f 833 834 836
f 833 836 835
f 835 836 826
f 835 826 825
f 835 825 827
f 827 829 831
f 831 833 835
f 827 831 835
o round_button_insert_chipbreaker_ring
v 0.000000000 0.000000066 2.919999719
v 0.000000000 0.009622574 2.879999757
v 0.000000000 0.009622574 2.799999833
v 0.000000000 0.000000066 2.759999871
v 0.000000000 -0.009622442 2.799999833
v 0.000000000 -0.009622442 2.879999757
v 0.040105185 0.000000066 2.908655524
v 0.039664376 0.009622574 2.868778825
v 0.038791234 0.009622574 2.789025426
v 0.038358901 0.000000066 2.749148726
v 0.038791234 -0.009622442 2.789025426
v 0.039664376 -0.009622442 2.868778825
v 0.079956057 0.000000066 2.874692559
v 0.079082915 0.009622574 2.835185170
v 0.077345108 0.009622574 2.756170154
v 0.076480444 0.000000066 2.716662765
v 0.077345108 -0.009622442 2.756170154
v 0.079082915 -0.009622442 2.835185170
v 0.119315257 0.000000066 2.818320870
v 0.118018259 0.009622574 2.779426217
v 0.115424265 0.009622574 2.701636672
v 0.114127268 0.000000066 2.662742019
v 0.115424265 -0.009622442 2.701636672
v 0.118018259 -0.009622442 2.779426217
v 0.157945425 0.000000066 2.739887834
v 0.156224573 0.009622574 2.701845527
v 0.152791345 0.009622508 2.625761151
v 0.151078970 0.000000066 2.587718844
v 0.152791345 -0.009622442 2.625761151
v 0.156224573 -0.009622442 2.701845527
v 0.195592250 0.000000066 2.639876485
v 0.193464496 0.009622508 2.602921367
v 0.189217466 0.009622508 2.529011130
v 0.187089713 0.000000066 2.492056012
v 0.189217466 -0.009622442 2.529011130
v 0.193464496 -0.009622442 2.602921367
v 0.232035325 0.000000066 2.518903852
v 0.229517625 0.009622508 2.483263612
v 0.224473747 0.009622508 2.411983132
v 0.221947570 0.000000000 2.376342893
v 0.224473747 -0.009622442 2.411983132
v 0.229517625 -0.009622442 2.483263612
v 0.267054247 0.000000000 2.377715468
v 0.264155077 0.009622508 2.343609929
v 0.258348260 0.009622508 2.275398850
v 0.255440613 0.000000000 2.241293311
v 0.258348260 -0.009622442 2.275398850
v 0.264155077 -0.009622442 2.343609929
v 0.300420133 0.000000000 2.217182279
v 0.297156448 0.009622508 2.184821725
v 0.290629077 0.009622508 2.120100379
v 0.287365391 0.000000000 2.087739825
v 0.290629077 -0.009622442 2.120100379
v 0.297156448 -0.009622442 2.184821725
v 0.331938011 0.000000000 2.038293719
v 0.328335241 0.009622508 2.007877462
v 0.321112747 0.009622508 1.947044965
v 0.317509977 0.000000000 1.916628957
v 0.321112747 -0.009622508 1.947044972
v 0.328335241 -0.009622508 2.007877477
v 0.361412906 0.000000000 1.842152476
v 0.357479529 0.009622508 1.813868158
v 0.349621252 0.009622508 1.757299781
v 0.345696352 0.000000000 1.729015470
v 0.349621252 -0.009622508 1.757299781
v 0.357479529 -0.009622508 1.813868172
v 0.388649845 0.000000000 1.629968286
v 0.384428246 0.009622508 1.603990436
v 0.375976572 0.009622508 1.552034736
v 0.371754974 0.000000000 1.526056647
v 0.375976572 -0.009622508 1.552034736
v 0.384428246 -0.009622508 1.603990436
v 0.413496240 0.000000000 1.403049111
v 0.409003375 0.009622508 1.379537702
v 0.400017643 0.009622508 1.332514882
v 0.395516300 0.000000000 1.309003472
v 0.400017643 -0.009622508 1.332514882
v 0.409003375 -0.009622508 1.379537702
v 0.435791027 0.000000000 1.162793994
v 0.431060802 0.009622508 1.141894102
v 0.421583399 0.009622508 1.100094318
v 0.416844697 0.000000000 1.079194307
v 0.421583399 -0.009622508 1.100094318
v 0.431060802 -0.009622508 1.141894102
v 0.455407049 0.000000000 0.910685658
v 0.450456419 0.009622508 0.892526031
v 0.440555160 0.009622508 0.856206894
v 0.435604531 0.000000000 0.838047266
v 0.440555160 -0.009622508 0.856206894
v 0.450456419 -0.009622508 0.892526031
v 0.472208671 0.000000000 0.648275733
v 0.467071546 0.009622508 0.632968426
v 0.456805771 0.009622508 0.602353692
v 0.451677122 0.000000000 0.587046385
v 0.456805771 -0.009622508 0.602353692
v 0.467071546 -0.009622508 0.632968426
v 0.486094170 0.000000000 0.377183080
v 0.480812933 0.009622508 0.364822388
v 0.470241983 0.009622508 0.340101004
v 0.464960746 0.000000000 0.327740312
v 0.470241983 -0.009622508 0.340101004
v 0.480812933 -0.009622508 0.364822388
v 0.496987250 0.000000000 0.099079370
v 0.491587334 0.009622508 0.089741588
v 0.480779025 0.009622508 0.071065903
v 0.475379109 0.000000000 0.061728120
v 0.480779025 -0.009622508 0.071066022
v 0.491587334 -0.009622508 0.089741588
v 0.504820095 0.000000000 -0.184320807
v 0.499335408 0.009622508 -0.190578341
v 0.488357557 0.009622508 -0.203092933
v 0.482872870 0.000000000 -0.209350228
v 0.488357557 -0.009622508 -0.203092933
v 0.499335408 -0.009622508 -0.190578103
v 0.509533366 0.000000000 -0.471270204
v 0.503997816 0.009622508 -0.474408746
v 0.492918240 0.009622508 -0.480685353
v 0.487382690 0.000000000 -0.483823657
v 0.492918240 -0.009622508 -0.480685353
v 0.503997816 -0.009622508 -0.474408507
v 0.511110107 0.000000000 -0.759999871
v 0.505557603 0.009622508 -0.759999871
v 0.494444118 0.009622508 -0.759999871
v 0.488891615 0.000000000 -0.759999871
v 0.494444118 -0.009622508 -0.759999871
v 0.505557603 -0.009622508 -0.759999871
v 0.509533366 0.000000000 -1.048729539
v 0.503997816 0.009622508 -1.045590997
v 0.492918240 0.009622508 -1.039314389
v 0.487382690 0.000000000 -1.036175847
v 0.492918240 -0.009622508 -1.039314389
v 0.503997816 -0.009622508 -1.045590997
v 0.504820095 0.000000000 -1.335678935
v 0.499335408 0.009622508 -1.329421401
v 0.488357557 0.009622508 -1.316906810
v 0.482872870 0.000000000 -1.310649276
v 0.488357557 -0.009622508 -1.316906810
v 0.499335408 -0.009622508 -1.329421401
v 0.496987250 0.000000000 -1.619079232
v 0.491587334 0.009622508 -1.609741330
v 0.480779025 0.009622508 -1.591065764
v 0.475379109 0.000000000 -1.581727862
v 0.480779025 -0.009622508 -1.591065764
v 0.491587334 -0.009622508 -1.609741330
v 0.486094170 0.000000000 -1.897182584
v 0.480812933 0.009622508 -1.884822011
v 0.470241983 0.009622508 -1.860100865
v 0.464960746 0.000000000 -1.847740054
v 0.470241983 -0.009622508 -1.860100627
v 0.480812933 -0.009622508 -1.884822011
v 0.472208671 0.000000000 -2.168275476
v 0.467071546 0.009622508 -2.152968049
v 0.456805771 0.009622508 -2.122353673
v 0.451677122 0.000000000 -2.107046247
v 0.456805771 -0.009622508 -2.122353196
v 0.467071546 -0.009622508 -2.152968049
v 0.455407049 0.000000000 -2.430685639
v 0.450456419 0.009622508 -2.412525773
v 0.440555160 0.009622508 -2.376206517
v 0.435604531 0.000000000 -2.358047128
v 0.440555160 -0.009622508 -2.376206517
v 0.450456419 -0.009622508 -2.412525773
v 0.435791027 0.000000000 -2.682795167
v 0.431060802 0.009622508 -2.661895394
v 0.421583399 0.009622508 -2.620095372
v 0.416844697 0.000000000 -2.599195123
v 0.421583399 -0.009622508 -2.620095372
v 0.431060802 -0.009622508 -2.661894917
v 0.413496240 0.000000000 -2.923050523
v 0.409003375 0.009622508 -2.899539113
v 0.400017643 0.009622508 -2.852516294
v 0.395516300 0.000000000 -2.829004884
v 0.400017643 -0.009622508 -2.852516294
v 0.409003375 -0.009622508 -2.899538636
v 0.388649845 0.000000000 -3.149969697
v 0.384428246 0.009622508 -3.123991609
v 0.375976572 0.009622508 -3.072035909
v 0.371754974 0.000000000 -3.046057820
v 0.375976572 -0.009622508 -3.072035432
v 0.384428246 -0.009622508 -3.123991609
v 0.361412906 0.000000000 -3.362153649
v 0.357479529 0.009622508 -3.333869576
v 0.349621252 0.009622508 -3.277300954
v 0.345696352 0.000000000 -3.249016404
v 0.349621252 -0.009622508 -3.277300477
v 0.357479529 -0.009622508 -3.333869100
v 0.331938011 0.000000000 -3.558294892
v 0.328335241 0.009622508 -3.527878404
v 0.321112747 0.009622508 -3.467045903
v 0.317509977 0.000000000 -3.436629891
v 0.321112747 -0.009622508 -3.467045903
v 0.328335241 -0.009622508 -3.527878404
v 0.300420133 0.000000000 -3.737183213
v 0.297156448 0.009622442 -3.704822659
v 0.290629077 0.009622442 -3.640101552
v 0.287365391 0.000000000 -3.607740521
v 0.290629077 -0.009622508 -3.640101075
v 0.297156448 -0.009622508 -3.704822659
v 0.267054247 0.000000000 -3.897716165
v 0.264155077 0.009622442 -3.863610864
v 0.258348260 0.009622442 -3.795399785
v 0.255440613 0.000000000 -3.761294007
v 0.258348260 -0.009622508 -3.795399308
v 0.264155077 -0.009622508 -3.863610864
v 0.232043802 -0.000000066 -4.038903832
v 0.229517625 0.009622442 -4.003263593
v 0.224473747 0.009622442 -3.931983113
v 0.221947570 0.000000000 -3.896342874
v 0.224473747 -0.009622508 -3.931983113
v 0.229517625 -0.009622508 -4.003263593
v 0.195592250 -0.000000066 -4.159876466
v 0.193464496 0.009622442 -4.122921586
v 0.189217466 0.009622442 -4.049011350
v 0.187089713 -0.000000066 -4.012055993
v 0.189217466 -0.009622508 -4.049010873
v 0.193464496 -0.009622508 -4.122921109
v 0.157945425 -0.000000066 -4.259887815
v 0.156224573 0.009622442 -4.221845746
v 0.152791345 0.009622442 -4.145761132
v 0.151078970 -0.000000066 -4.107719064
v 0.152791345 -0.009622508 -4.145761132
v 0.156224573 -0.009622574 -4.221845269
v 0.119315257 -0.000000066 -4.338321328
v 0.118018259 0.009622442 -4.299426675
v 0.115424265 0.009622442 -4.221636891
v 0.114127268 -0.000000066 -4.182742238
v 0.115424265 -0.009622574 -4.221636891
v 0.118018259 -0.009622574 -4.299426198
v 0.079956057 -0.000000066 -4.394693017
v 0.079082915 0.009622442 -4.355185628
v 0.077345108 0.009622442 -4.276170850
v 0.076480444 -0.000000066 -4.236663461
v 0.077345108 -0.009622574 -4.276170373
v 0.079082915 -0.009622574 -4.355185628
v 0.040105185 -0.000000066 -4.428655744
v 0.039664376 0.009622442 -4.388779283
v 0.038791234 0.009622442 -4.309025884
v 0.038358901 -0.000000066 -4.269149423
v 0.038791234 -0.009622574 -4.309025884
v 0.039664376 -0.009622574 -4.388779283
v 0.000000000 -0.000000066 -4.440000176
v 0.000000000 0.009622442 -4.400000215
v 0.000000000 0.009622442 -4.320000291
v 0.000000000 -0.000000066 -4.280000329
v 0.000000000 -0.009622574 -4.319999814
v 0.000000000 -0.009622574 -4.399999738
v -0.040105185 -0.000000066 -4.428655744
v -0.039664376 0.009622442 -4.388779283
v -0.038791234 0.009622442 -4.309025884
v -0.038358901 -0.000000066 -4.269149423
v -0.038791234 -0.009622574 -4.309025884
v -0.039664376 -0.009622574 -4.388779283
v -0.079956057 -0.000000066 -4.394693017
v -0.079082915 0.009622442 -4.355186105
v -0.077345108 0.009622442 -4.276170850
v -0.076480444 -0.000000066 -4.236663461
v -0.077345108 -0.009622574 -4.276170850
v -0.079082915 -0.009622574 -4.355185628
v -0.119315257 -0.000000066 -4.338321328
v -0.118018259 0.009622442 -4.299427152
v -0.115424265 0.009622442 -4.221637368
v -0.114127268 -0.000000066 -4.182742715
v -0.115424265 -0.009622574 -4.221637368
v -0.118018259 -0.009622574 -4.299426675
v -0.157945425 -0.000000066 -4.259888291
v -0.156224573 0.009622442 -4.221846223
v -0.152791345 0.009622442 -4.145762086
v -0.151078970 -0.000000066 -4.107719541
v -0.152791345 -0.009622508 -4.145761609
v -0.156224573 -0.009622574 -4.221846223
v -0.195592250 -0.000000066 -4.159877419
v -0.193464496 0.009622442 -4.122922063
v -0.189217466 0.009622442 -4.049011827
v -0.187089713 -0.000000066 -4.012056470
v -0.189217466 -0.009622508 -4.049011827
v -0.193464496 -0.009622508 -4.122922063
v -0.232035325 -0.000000066 -4.038904786
v -0.229517625 0.009622442 -4.003264546
v -0.224473747 0.009622442 -3.931984067
v -0.221947570 0.000000000 -3.896343827
v -0.224473747 -0.009622508 -3.931983590
v -0.229517625 -0.009622508 -4.003264070
v -0.267054247 0.000000000 -3.897716165
v -0.264155077 0.009622442 -3.863610864
v -0.258348260 0.009622442 -3.795399785
v -0.255440613 0.000000000 -3.761294007
v -0.258348260 -0.009622508 -3.795399308
v -0.264155077 -0.009622508 -3.863610864
v -0.300420133 0.000000000 -3.737183213
v -0.297156448 0.009622442 -3.704822659
v -0.290629077 0.009622442 -3.640101552
v -0.287365391 0.000000000 -3.607740521
v -0.290629077 -0.009622508 -3.640101075
v -0.297156448 -0.009622508 -3.704822659
v -0.331938011 0.000000000 -3.558294892
v -0.328335241 0.009622508 -3.527878404
v -0.321112747 0.009622508 -3.467045903
v -0.317509977 0.000000000 -3.436629891
v -0.321112747 -0.009622508 -3.467045903
v -0.328335241 -0.009622508 -3.527878404
v -0.361412906 0.000000000 -3.362153649
v -0.357479529 0.009622508 -3.333869576
v -0.349621252 0.009622508 -3.277300954
v -0.345696352 0.000000000 -3.249016404
v -0.349621252 -0.009622508 -3.277300477
v -0.357479529 -0.009622508 -3.333869100
v -0.388649845 0.000000000 -3.149969697
v -0.384428246 0.009622508 -3.123991609
v -0.375976572 0.009622508 -3.072035909
v -0.371754974 0.000000000 -3.046057820
v -0.375976572 -0.009622508 -3.072035432
v -0.384428246 -0.009622508 -3.123991609
v -0.413496240 0.000000000 -2.923050523
v -0.409003375 0.009622508 -2.899539113
v -0.400017643 0.009622508 -2.852516294
v -0.395516300 0.000000000 -2.829004884
v -0.400017643 -0.009622508 -2.852516294
v -0.409003375 -0.009622508 -2.899538636
v -0.435791027 0.000000000 -2.682795167
v -0.431060802 0.009622508 -2.661895394
v -0.421583399 0.009622508 -2.620095372
v -0.416844697 0.000000000 -2.599195123
v -0.421583399 -0.009622508 -2.620095372
v -0.431060802 -0.009622508 -2.661894917
v -0.455407049 0.000000000 -2.430685639
v -0.450456419 0.009622508 -2.412525773
v -0.440555160 0.009622508 -2.376206517
v -0.435604531 0.000000000 -2.358047128
v -0.440555160 -0.009622508 -2.376206517
v -0.450456419 -0.009622508 -2.412525773
v -0.472208671 0.000000000 -2.168275476
v -0.467071546 0.009622508 -2.152968049
v -0.456805771 0.009622508 -2.122353673
v -0.451677122 0.000000000 -2.107046247
v -0.456805771 -0.009622508 -2.122353196
v -0.467071546 -0.009622508 -2.152968049
v -0.486094170 0.000000000 -1.897182584
v -0.480812933 0.009622508 -1.884822011
v -0.470241983 0.009622508 -1.860100865
v -0.464960746 0.000000000 -1.847740054
v -0.470241983 -0.009622508 -1.860100627
v -0.480812933 -0.009622508 -1.884822011
v -0.496987250 0.000000000 -1.619079232
v -0.491587334 0.009622508 -1.609741330
v -0.480779025 0.009622508 -1.591065764
v -0.475379109 0.000000000 -1.581727862
v -0.480779025 -0.009622508 -1.591065764
v -0.491587334 -0.009622508 -1.609741330
v -0.504820095 0.000000000 -1.335678935
v -0.499335408 0.009622508 -1.329421401
v -0.488357557 0.009622508 -1.316906810
v -0.482872870 0.000000000 -1.310649276
v -0.488357557 -0.009622508 -1.316906810
v -0.499335408 -0.009622508 -1.329421401
v -0.509533366 0.000000000 -1.048729539
v -0.503997816 0.009622508 -1.045590997
v -0.492918240 0.009622508 -1.039314389
v -0.487382690 0.000000000 -1.036175847
v -0.492918240 -0.009622508 -1.039314389
v -0.503997816 -0.009622508 -1.045590997
v -0.511110107 0.000000000 -0.759999871
v -0.505557603 0.009622508 -0.759999871
v -0.494444118 0.009622508 -0.759999871
v -0.488891615 0.000000000 -0.759999871
v -0.494444118 -0.009622508 -0.759999871
v -0.505557603 -0.009622508 -0.759999871
v -0.509533366 0.000000000 -0.471270204
v -0.503997816 0.009622508 -0.474408746
v -0.492918240 0.009622508 -0.480685353
v -0.487382690 0.000000000 -0.483823657
v -0.492918240 -0.009622508 -0.480685353
v -0.503997816 -0.009622508 -0.474408507
v -0.504820095 0.000000000 -0.184320807
v -0.499335408 0.009622508 -0.190578341
v -0.488357557 0.009622508 -0.203092933
v -0.482872870 0.000000000 -0.209350228
v -0.488357557 -0.009622508 -0.203092933
v -0.499335408 -0.009622508 -0.190578103
v -0.496987250 0.000000000 0.099079370
v -0.491587334 0.009622508 0.089741588
v -0.480779025 0.009622508 0.071065903
v -0.475379109 0.000000000 0.061728120
v -0.480779025 -0.009622508 0.071066022
v -0.491587334 -0.009622508 0.089741588
v -0.486094170 0.000000000 0.377183080
v -0.480812933 0.009622508 0.364822388
v -0.470241983 0.009622508 0.340101004
v -0.464960746 0.000000000 0.327740312
v -0.470241983 -0.009622508 0.340101004
v -0.480812933 -0.009622508 0.364822388
v -0.472208671 0.000000000 0.648275733
v -0.467071546 0.009622508 0.632968426
v -0.456805771 0.009622508 0.602353692
v -0.451677122 0.000000000 0.587046385
v -0.456805771 -0.009622508 0.602353692
v -0.467071546 -0.009622508 0.632968426
v -0.455407049 0.000000000 0.910685658
v -0.450456419 0.009622508 0.892526031
v -0.440555160 0.009622508 0.856206894
v -0.435604531 0.000000000 0.838047266
v -0.440555160 -0.009622508 0.856206894
v -0.450456419 -0.009622508 0.892526031
v -0.435791027 0.000000000 1.162795544
v -0.431060802 0.009622508 1.141895652
v -0.421583399 0.009622508 1.100095749
v -0.416844697 0.000000000 1.079195857
v -0.421583399 -0.009622508 1.100095749
v -0.431060802 -0.009622508 1.141895652
v -0.413496240 0.000000000 1.403047681
v -0.409003375 0.009622508 1.379536271
v -0.400017643 0.009622508 1.332513690
v -0.395516300 0.000000000 1.309002280
v -0.400017643 -0.009622508 1.332513690
v -0.409003375 -0.009622508 1.379536271
v -0.388649845 0.000000000 1.629967093
v -0.384428246 0.009622508 1.603989244
v -0.375976572 0.009622508 1.552033305
v -0.371754974 0.000000000 1.526055455
v -0.375976572 -0.009622508 1.552033305
v -0.384428246 -0.009622508 1.603989244
v -0.361412906 0.000000000 1.842151284
v -0.357479529 0.009622508 1.813867204
v -0.349621252 0.009622508 1.757298589
v -0.345696352 0.000000000 1.729014516
v -0.349621252 -0.009622508 1.757298589
v -0.357479529 -0.009622508 1.813867219
v -0.331938011 0.000000000 2.038292289
v -0.328335241 0.009622508 2.007876270
v -0.321112747 0.009622508 1.947043773
v -0.317509977 0.000000000 1.916627526
v -0.321112747 -0.009622508 1.947043780
v -0.328335241 -0.009622508 2.007876284
v -0.300420133 0.000000000 2.217181325
v -0.297156448 0.009622508 2.184820533
v -0.290629077 0.009622508 2.120099425
v -0.287365391 0.000000000 2.087738633
v -0.290629077 -0.009622442 2.120099425
v -0.297156448 -0.009622442 2.184820533
v -0.267054247 0.000000000 2.377714515
v -0.264155077 0.009622508 2.343608975
v -0.258348260 0.009622508 2.275397897
v -0.255440613 0.000000000 2.241292357
v -0.258348260 -0.009622442 2.275397897
v -0.264155077 -0.009622442 2.343608975
v -0.232043802 0.000000066 2.518903136
v -0.229517625 0.009622508 2.483262897
v -0.224473747 0.009622508 2.411982417
v -0.221947570 0.000000000 2.376342177
v -0.224473747 -0.009622442 2.411982417
v -0.229517625 -0.009622442 2.483262897
v -0.195592250 0.000000066 2.639875770
v -0.193464496 0.009622508 2.602920651
v -0.189217466 0.009622508 2.529010415
v -0.187089713 0.000000066 2.492055297
v -0.189217466 -0.009622442 2.529010415
v -0.193464496 -0.009622442 2.602920651
v -0.157945425 0.000000066 2.739887357
v -0.156224573 0.009622574 2.701845050
v -0.152791345 0.009622508 2.625760674
v -0.151078970 0.000000066 2.587718368
v -0.152791345 -0.009622442 2.625760674
v -0.156224573 -0.009622442 2.701845050
v -0.119315257 0.000000066 2.818320870
v -0.118018259 0.009622574 2.779425979
v -0.115424265 0.009622574 2.701636434
v -0.114127268 0.000000066 2.662741780
v -0.115424265 -0.009622442 2.701636434
v -0.118018259 -0.009622442 2.779425979
v -0.079956057 0.000000066 2.874692559
v -0.079082915 0.009622574 2.835185170
v -0.077345108 0.009622574 2.756170154
v -0.076480444 0.000000066 2.716662765
v -0.077345108 -0.009622442 2.756170154
v -0.079082915 -0.009622442 2.835185170
v -0.040105185 0.000000066 2.908655524
v -0.039664376 0.009622574 2.868778825
v -0.038791234 0.009622574 2.789025426
v -0.038358901 0.000000066 2.749148726
v -0.038791234 -0.009622442 2.789025426
v -0.039664376 -0.009622442 2.868778825
usemtl black_pocket
f 837 843 844
f 837 844 838
f 838 844 845
f 838 845 839
f 839 845 846
f 839 846 840
f 840 846 847
f 840 847 841
f 841 847 848
f 841 848 842
f 842 848 843
f 842 843 837
f 843 849 850
f 843 850 844
f 844 850 851
f 844 851 845
f 845 851 852
f 845 852 846
f 846 852 853
f 846 853 847
f 847 853 854
f 847 854 848
f 848 854 849
f 848 849 843
f 849 855 856
f 849 856 850
f 850 856 857
f 850 857 851
f 851 857 858
f 851 858 852
f 852 858 859
f 852 859 853
f 853 859 860
f 853 860 854
f 854 860 855
f 854 855 849
f 855 861 862
f 855 862 856
f 856 862 863
f 856 863 857
f 857 863 864
f 857 864 858
f 858 864 865
f 858 865 859
f 859 865 866
f 859 866 860
f 860 866 861
f 860 861 855
f 861 867 868
f 861 868 862
f 862 868 869
f 862 869 863
f 863 869 870
f 863 870 864
f 864 870 871
f 864 871 865
f 865 871 872
f 865 872 866
f 866 872 867
f 866 867 861
f 867 873 874
f 867 874 868
f 868 874 875
f 868 875 869
f 869 875 876
f 869 876 870
f 870 876 877
f 870 877 871
f 871 877 878
f 871 878 872
f 872 878 873
f 872 873 867
f 873 879 880
f 873 880 874
f 874 880 881
f 874 881 875
f 875 881 882
f 875 882 876
f 876 882 883
f 876 883 877
f 877 883 884
f 877 884 878
f 878 884 879
f 878 879 873
f 879 885 886
f 879 886 880
f 880 886 887
f 880 887 881
f 881 887 888
f 881 888 882
f 882 888 889
f 882 889 883
f 883 889 890
f 883 890 884
f 884 890 885
f 884 885 879
f 885 891 892
f 885 892 886
f 886 892 893
f 886 893 887
f 887 893 894
f 887 894 888
f 888 894 895
f 888 895 889
f 889 895 896
f 889 896 890
f 890 896 891
f 890 891 885
f 891 897 898
f 891 898 892
f 892 898 899
f 892 899 893
f 893 899 900
f 893 900 894
f 894 900 901
f 894 901 895
f 895 901 902
f 895 902 896
f 896 902 897
f 896 897 891
f 897 903 904
f 897 904 898
f 898 904 905
f 898 905 899
f 899 905 906
f 899 906 900
f 900 906 907
f 900 907 901
f 901 907 908
f 901 908 902
f 902 908 903
f 902 903 897
f 903 909 910
f 903 910 904
f 904 910 911
f 904 911 905
f 905 911 912
f 905 912 906
f 906 912 913
f 906 913 907
f 907 913 914
f 907 914 908
f 908 914 909
f 908 909 903
f 909 915 916
f 909 916 910
f 910 916 917
f 910 917 911
f 911 917 918
f 911 918 912
f 912 918 919
f 912 919 913
f 913 919 920
f 913 920 914
f 914 920 915
f 914 915 909
f 915 921 922
f 915 922 916
f 916 922 923
f 916 923 917
f 917 923 924
f 917 924 918
f 918 924 925
f 918 925 919
f 919 925 926
f 919 926 920
f 920 926 921
f 920 921 915
f 921 927 928
f 921 928 922
f 922 928 929
f 922 929 923
f 923 929 930
f 923 930 924
f 924 930 931
f 924 931 925
f 925 931 932
f 925 932 926
f 926 932 927
f 926 927 921
f 927 933 934
f 927 934 928
f 928 934 935
f 928 935 929
f 929 935 936
f 929 936 930
f 930 936 937
f 930 937 931
f 931 937 938
f 931 938 932
f 932 938 933
f 932 933 927
f 933 939 940
f 933 940 934
f 934 940 941
f 934 941 935
f 935 941 942
f 935 942 936
f 936 942 943
f 936 943 937
f 937 943 944
f 937 944 938
f 938 944 939
f 938 939 933
f 939 945 946
f 939 946 940
f 940 946 947
f 940 947 941
f 941 947 948
f 941 948 942
f 942 948 949
f 942 949 943
f 943 949 950
f 943 950 944
f 944 950 945
f 944 945 939
f 945 951 952
f 945 952 946
f 946 952 953
f 946 953 947
f 947 953 954
f 947 954 948
f 948 954 955
f 948 955 949
f 949 955 956
f 949 956 950
f 950 956 951
f 950 951 945
f 951 957 958
f 951 958 952
f 952 958 959
f 952 959 953
f 953 959 960
f 953 960 954
f 954 960 961
f 954 961 955
f 955 961 962
f 955 962 956
f 956 962 957
f 956 957 951
f 957 963 964
f 957 964 958
f 958 964 965
f 958 965 959
f 959 965 966
f 959 966 960
f 960 966 967
f 960 967 961
f 961 967 968
f 961 968 962
f 962 968 963
f 962 963 957
f 963 969 970
f 963 970 964
f 964 970 971
f 964 971 965
f 965 971 972
f 965 972 966
f 966 972 973
f 966 973 967
f 967 973 974
f 967 974 968
f 968 974 969
f 968 969 963
f 969 975 976
f 969 976 970
f 970 976 977
f 970 977 971
f 971 977 978
f 971 978 972
f 972 978 979
f 972 979 973
f 973 979 980
f 973 980 974
f 974 980 975
f 974 975 969
f 975 981 982
f 975 982 976
f 976 982 983
f 976 983 977
f 977 983 984
f 977 984 978
f 978 984 985
f 978 985 979
f 979 985 986
f 979 986 980
f 980 986 981
f 980 981 975
f 981 987 988
f 981 988 982
f 982 988 989
f 982 989 983
f 983 989 990
f 983 990 984
f 984 990 991
f 984 991 985
f 985 991 992
f 985 992 986
f 986 992 987
f 986 987 981
f 987 993 994
f 987 994 988
f 988 994 995
f 988 995 989
f 989 995 996
f 989 996 990
f 990 996 997
f 990 997 991
f 991 997 998
f 991 998 992
f 992 998 993
f 992 993 987
f 993 999 1000
f 993 1000 994
f 994 1000 1001
f 994 1001 995
f 995 1001 1002
f 995 1002 996
f 996 1002 1003
f 996 1003 997
f 997 1003 1004
f 997 1004 998
f 998 1004 999
f 998 999 993
f 999 1005 1006
f 999 1006 1000
f 1000 1006 1007
f 1000 1007 1001
f 1001 1007 1008
f 1001 1008 1002
f 1002 1008 1009
f 1002 1009 1003
f 1003 1009 1010
f 1003 1010 1004
f 1004 1010 1005
f 1004 1005 999
f 1005 1011 1012
f 1005 1012 1006
f 1006 1012 1013
f 1006 1013 1007
f 1007 1013 1014
f 1007 1014 1008
f 1008 1014 1015
f 1008 1015 1009
f 1009 1015 1016
f 1009 1016 1010
f 1010 1016 1011
f 1010 1011 1005
f 1011 1017 1018
f 1011 1018 1012
f 1012 1018 1019
f 1012 1019 1013
f 1013 1019 1020
f 1013 1020 1014
f 1014 1020 1021
f 1014 1021 1015
f 1015 1021 1022
f 1015 1022 1016
f 1016 1022 1017
f 1016 1017 1011
f 1017 1023 1024
f 1017 1024 1018
f 1018 1024 1025
f 1018 1025 1019
f 1019 1025 1026
f 1019 1026 1020
f 1020 1026 1027
f 1020 1027 1021
f 1021 1027 1028
f 1021 1028 1022
f 1022 1028 1023
f 1022 1023 1017
f 1023 1029 1030
f 1023 1030 1024
f 1024 1030 1031
f 1024 1031 1025
f 1025 1031 1032
f 1025 1032 1026
f 1026 1032 1033
f 1026 1033 1027
f 1027 1033 1034
f 1027 1034 1028
f 1028 1034 1029
f 1028 1029 1023
f 1029 1035 1036
f 1029 1036 1030
f 1030 1036 1037
f 1030 1037 1031
f 1031 1037 1038
f 1031 1038 1032
f 1032 1038 1039
f 1032 1039 1033
f 1033 1039 1040
f 1033 1040 1034
f 1034 1040 1035
f 1034 1035 1029
f 1035 1041 1042
f 1035 1042 1036
f 1036 1042 1043
f 1036 1043 1037
f 1037 1043 1044
f 1037 1044 1038
f 1038 1044 1045
f 1038 1045 1039
f 1039 1045 1046
f 1039 1046 1040
f 1040 1046 1041
f 1040 1041 1035
f 1041 1047 1048
f 1041 1048 1042
f 1042 1048 1049
f 1042 1049 1043
f 1043 1049 1050
f 1043 1050 1044
f 1044 1050 1051
f 1044 1051 1045
f 1045 1051 1052
f 1045 1052 1046
f 1046 1052 1047
f 1046 1047 1041
f 1047 1053 1054
f 1047 1054 1048
f 1048 1054 1055
f 1048 1055 1049
f 1049 1055 1056
f 1049 1056 1050
f 1050 1056 1057
f 1050 1057 1051
f 1051 1057 1058
f 1051 1058 1052
f 1052 1058 1053
f 1052 1053 1047
f 1053 1059 1060
f 1053 1060 1054
f 1054 1060 1061
f 1054 1061 1055
f 1055 1061 1062
f 1055 1062 1056
f 1056 1062 1063
f 1056 1063 1057
f 1057 1063 1064
f 1057 1064 1058
f 1058 1064 1059
f 1058 1059 1053
f 1059 1065 1066
f 1059 1066 1060
f 1060 1066 1067
f 1060 1067 1061
f 1061 1067 1068
f 1061 1068 1062
f 1062 1068 1069
f 1062 1069 1063
f 1063 1069 1070
f 1063 1070 1064
f 1064 1070 1065
f 1064 1065 1059
f 1065 1071 1072
f 1065 1072 1066
f 1066 1072 1073
f 1066 1073 1067
f 1067 1073 1074
f 1067 1074 1068
f 1068 1074 1075
f 1068 1075 1069
f 1069 1075 1076
f 1069 1076 1070
f 1070 1076 1071
f 1070 1071 1065
f 1071 1077 1078
f 1071 1078 1072
f 1072 1078 1079
f 1072 1079 1073
f 1073 1079 1080
f 1073 1080 1074
f 1074 1080 1081
f 1074 1081 1075
f 1075 1081 1082
f 1075 1082 1076
f 1076 1082 1077
f 1076 1077 1071
f 1077 1083 1084
f 1077 1084 1078
f 1078 1084 1085
f 1078 1085 1079
f 1079 1085 1086
f 1079 1086 1080
f 1080 1086 1087
f 1080 1087 1081
f 1081 1087 1088
f 1081 1088 1082
f 1082 1088 1083
f 1082 1083 1077
f 1083 1089 1090
f 1083 1090 1084
f 1084 1090 1091
f 1084 1091 1085
f 1085 1091 1092
f 1085 1092 1086
f 1086 1092 1093
f 1086 1093 1087
f 1087 1093 1094
f 1087 1094 1088
f 1088 1094 1089
f 1088 1089 1083
f 1089 1095 1096
f 1089 1096 1090
f 1090 1096 1097
f 1090 1097 1091
f 1091 1097 1098
f 1091 1098 1092
f 1092 1098 1099
f 1092 1099 1093
f 1093 1099 1100
f 1093 1100 1094
f 1094 1100 1095
f 1094 1095 1089
f 1095 1101 1102
f 1095 1102 1096
f 1096 1102 1103
f 1096 1103 1097
f 1097 1103 1104
f 1097 1104 1098
f 1098 1104 1105
f 1098 1105 1099
f 1099 1105 1106
f 1099 1106 1100
f 1100 1106 1101
f 1100 1101 1095
f 1101 1107 1108
f 1101 1108 1102
f 1102 1108 1109
f 1102 1109 1103
f 1103 1109 1110
f 1103 1110 1104
f 1104 1110 1111
f 1104 1111 1105
f 1105 1111 1112
f 1105 1112 1106
f 1106 1112 1107
f 1106 1107 1101
f 1107 1113 1114
f 1107 1114 1108
f 1108 1114 1115
f 1108 1115 1109
f 1109 1115 1116
f 1109 1116 1110
f 1110 1116 1117
f 1110 1117 1111
f 1111 1117 1118
f 1111 1118 1112
f 1112 1118 1113
f 1112 1113 1107
f 1113 1119 1120
f 1113 1120 1114
f 1114 1120 1121
f 1114 1121 1115
f 1115 1121 1122
f 1115 1122 1116
f 1116 1122 1123
f 1116 1123 1117
f 1117 1123 1124
f 1117 1124 1118
f 1118 1124 1119
f 1118 1119 1113
f 1119 1125 1126
f 1119 1126 1120
f 1120 1126 1127
f 1120 1127 1121
f 1121 1127 1128
f 1121 1128 1122
f 1122 1128 1129
f 1122 1129 1123
f 1123 1129 1130
f 1123 1130 1124
f 1124 1130 1125
f 1124 1125 1119
f 1125 1131 1132
f 1125 1132 1126
f 1126 1132 1133
f 1126 1133 1127
f 1127 1133 1134
f 1127 1134 1128
f 1128 1134 1135
f 1128 1135 1129
f 1129 1135 1136
f 1129 1136 1130
f 1130 1136 1131
f 1130 1131 1125
f 1131 1137 1138
f 1131 1138 1132
f 1132 1138 1139
f 1132 1139 1133
f 1133 1139 1140
f 1133 1140 1134
f 1134 1140 1141
f 1134 1141 1135
f 1135 1141 1142
f 1135 1142 1136
f 1136 1142 1137
f 1136 1137 1131
f 1137 1143 1144
f 1137 1144 1138
f 1138 1144 1145
f 1138 1145 1139
f 1139 1145 1146
f 1139 1146 1140
f 1140 1146 1147
f 1140 1147 1141
f 1141 1147 1148
f 1141 1148 1142
f 1142 1148 1143
f 1142 1143 1137
f 1143 1149 1150
f 1143 1150 1144
f 1144 1150 1151
f 1144 1151 1145
f 1145 1151 1152
f 1145 1152 1146
f 1146 1152 1153
f 1146 1153 1147
f 1147 1153 1154
f 1147 1154 1148
f 1148 1154 1149
f 1148 1149 1143
f 1149 1155 1156
f 1149 1156 1150
f 1150 1156 1157
f 1150 1157 1151
f 1151 1157 1158
f 1151 1158 1152
f 1152 1158 1159
f 1152 1159 1153
f 1153 1159 1160
f 1153 1160 1154
f 1154 1160 1155
f 1154 1155 1149
f 1155 1161 1162
f 1155 1162 1156
f 1156 1162 1163
f 1156 1163 1157
f 1157 1163 1164
f 1157 1164 1158
f 1158 1164 1165
f 1158 1165 1159
f 1159 1165 1166
f 1159 1166 1160
f 1160 1166 1161
f 1160 1161 1155
f 1161 1167 1168
f 1161 1168 1162
f 1162 1168 1169
f 1162 1169 1163
f 1163 1169 1170
f 1163 1170 1164
f 1164 1170 1171
f 1164 1171 1165
f 1165 1171 1172
f 1165 1172 1166
f 1166 1172 1167
f 1166 1167 1161
f 1167 1173 1174
f 1167 1174 1168
f 1168 1174 1175
f 1168 1175 1169
f 1169 1175 1176
f 1169 1176 1170
f 1170 1176 1177
f 1170 1177 1171
f 1171 1177 1178
f 1171 1178 1172
f 1172 1178 1173
f 1172 1173 1167
f 1173 1179 1180
f 1173 1180 1174
f 1174 1180 1181
f 1174 1181 1175
f 1175 1181 1182
f 1175 1182 1176
f 1176 1182 1183
f 1176 1183 1177
f 1177 1183 1184
f 1177 1184 1178
f 1178 1184 1179
f 1178 1179 1173
f 1179 1185 1186
f 1179 1186 1180
f 1180 1186 1187
f 1180 1187 1181
f 1181 1187 1188
f 1181 1188 1182
f 1182 1188 1189
f 1182 1189 1183
f 1183 1189 1190
f 1183 1190 1184
f 1184 1190 1185
f 1184 1185 1179
f 1185 1191 1192
f 1185 1192 1186
f 1186 1192 1193
f 1186 1193 1187
f 1187 1193 1194
f 1187 1194 1188
f 1188 1194 1195
f 1188 1195 1189
f 1189 1195 1196
f 1189 1196 1190
f 1190 1196 1191
f 1190 1191 1185
f 1191 1197 1198
f 1191 1198 1192
f 1192 1198 1199
f 1192 1199 1193
f 1193 1199 1200
f 1193 1200 1194
f 1194 1200 1201
f 1194 1201 1195
f 1195 1201 1202
f 1195 1202 1196
f 1196 1202 1197
f 1196 1197 1191
f 1197 1203 1204
f 1197 1204 1198
f 1198 1204 1205
f 1198 1205 1199
f 1199 1205 1206
f 1199 1206 1200
f 1200 1206 1207
f 1200 1207 1201
f 1201 1207 1208
f 1201 1208 1202
f 1202 1208 1203
f 1202 1203 1197
f 1203 1209 1210
f 1203 1210 1204
f 1204 1210 1211
f 1204 1211 1205
f 1205 1211 1212
f 1205 1212 1206
f 1206 1212 1213
f 1206 1213 1207
f 1207 1213 1214
f 1207 1214 1208
f 1208 1214 1209
f 1208 1209 1203
f 1209 1215 1216
f 1209 1216 1210
f 1210 1216 1217
f 1210 1217 1211
f 1211 1217 1218
f 1211 1218 1212
f 1212 1218 1219
f 1212 1219 1213
f 1213 1219 1220
f 1213 1220 1214
f 1214 1220 1215
f 1214 1215 1209
f 1215 1221 1222
f 1215 1222 1216
f 1216 1222 1223
f 1216 1223 1217
f 1217 1223 1224
f 1217 1224 1218
f 1218 1224 1225
f 1218 1225 1219
f 1219 1225 1226
f 1219 1226 1220
f 1220 1226 1221
f 1220 1221 1215
f 1221 1227 1228
f 1221 1228 1222
f 1222 1228 1229
f 1222 1229 1223
f 1223 1229 1230
f 1223 1230 1224
f 1224 1230 1231
f 1224 1231 1225
f 1225 1231 1232
f 1225 1232 1226
f 1226 1232 1227
f 1226 1227 1221
f 1227 1233 1234
f 1227 1234 1228
f 1228 1234 1235
f 1228 1235 1229
f 1229 1235 1236
f 1229 1236 1230
f 1230 1236 1237
f 1230 1237 1231
f 1231 1237 1238
f 1231 1238 1232
f 1232 1238 1233
f 1232 1233 1227
f 1233 1239 1240
f 1233 1240 1234
f 1234 1240 1241
f 1234 1241 1235
f 1235 1241 1242
f 1235 1242 1236
f 1236 1242 1243
f 1236 1243 1237
f 1237 1243 1244
f 1237 1244 1238
f 1238 1244 1239
f 1238 1239 1233
f 1239 1245 1246
f 1239 1246 1240
f 1240 1246 1247
f 1240 1247 1241
f 1241 1247 1248
f 1241 1248 1242
f 1242 1248 1249
f 1242 1249 1243
f 1243 1249 1250
f 1243 1250 1244
f 1244 1250 1245
f 1244 1245 1239
f 1245 1251 1252
f 1245 1252 1246
f 1246 1252 1253
f 1246 1253 1247
f 1247 1253 1254
f 1247 1254 1248
f 1248 1254 1255
f 1248 1255 1249
f 1249 1255 1256
f 1249 1256 1250
f 1250 1256 1251
f 1250 1251 1245
f 1251 1257 1258
f 1251 1258 1252
f 1252 1258 1259
f 1252 1259 1253
f 1253 1259 1260
f 1253 1260 1254
f 1254 1260 1261
f 1254 1261 1255
f 1255 1261 1262
f 1255 1262 1256
f 1256 1262 1257
f 1256 1257 1251
f 1257 1263 1264
f 1257 1264 1258
f 1258 1264 1265
f 1258 1265 1259
f 1259 1265 1266
f 1259 1266 1260
f 1260 1266 1267
f 1260 1267 1261
f 1261 1267 1268
f 1261 1268 1262
f 1262 1268 1263
f 1262 1263 1257
f 1263 1269 1270
f 1263 1270 1264
f 1264 1270 1271
f 1264 1271 1265
f 1265 1271 1272
f 1265 1272 1266
f 1266 1272 1273
f 1266 1273 1267
f 1267 1273 1274
f 1267 1274 1268
f 1268 1274 1269
f 1268 1269 1263
f 1269 1275 1276
f 1269 1276 1270
f 1270 1276 1277
f 1270 1277 1271
f 1271 1277 1278
f 1271 1278 1272
f 1272 1278 1279
f 1272 1279 1273
f 1273 1279 1280
f 1273 1280 1274
f 1274 1280 1275
f 1274 1275 1269
f 1275 1281 1282
f 1275 1282 1276
f 1276 1282 1283
f 1276 1283 1277
f 1277 1283 1284
f 1277 1284 1278
f 1278 1284 1285
f 1278 1285 1279
f 1279 1285 1286
f 1279 1286 1280
f 1280 1286 1281
f 1280 1281 1275
f 1281 1287 1288
f 1281 1288 1282
f 1282 1288 1289
f 1282 1289 1283
f 1283 1289 1290
f 1283 1290 1284
f 1284 1290 1291
f 1284 1291 1285
f 1285 1291 1292
f 1285 1292 1286
f 1286 1292 1287
f 1286 1287 1281
f 1287 1293 1294
f 1287 1294 1288
f 1288 1294 1295
f 1288 1295 1289
f 1289 1295 1296
f 1289 1296 1290
f 1290 1296 1297
f 1290 1297 1291
f 1291 1297 1298
f 1291 1298 1292
f 1292 1298 1293
f 1292 1293 1287
f 1293 1299 1300
f 1293 1300 1294
f 1294 1300 1301
f 1294 1301 1295
f 1295 1301 1302
f 1295 1302 1296
f 1296 1302 1303
f 1296 1303 1297
f 1297 1303 1304
f 1297 1304 1298
f 1298 1304 1299
f 1298 1299 1293
f 1299 1305 1306
f 1299 1306 1300
f 1300 1306 1307
f 1300 1307 1301
f 1301 1307 1308
f 1301 1308 1302
f 1302 1308 1309
f 1302 1309 1303
f 1303 1309 1310
f 1303 1310 1304
f 1304 1310 1305
f 1304 1305 1299
f 1305 1311 1312
f 1305 1312 1306
f 1306 1312 1313
f 1306 1313 1307
f 1307 1313 1314
f 1307 1314 1308
f 1308 1314 1315
f 1308 1315 1309
f 1309 1315 1316
f 1309 1316 1310
f 1310 1316 1311
f 1310 1311 1305
f 1311 837 838
f 1311 838 1312
f 1312 838 839
f 1312 839 1313
f 1313 839 840
f 1313 840 1314
f 1314 840 841
f 1314 841 1315
f 1315 841 842
f 1315 842 1316
f 1316 842 837
f 1316 837 1311
